<?xml version="1.0" standalone="no"?>
<!DOCTYPE svg PUBLIC "-//W3C//DTD SVG 1.1//EN" "http://www.w3.org/Graphics/SVG/1.1/DTD/svg11.dtd" >
<svg xmlns="http://www.w3.org/2000/svg" xmlns:xlink="http://www.w3.org/1999/xlink" version="1.1">
<metadata></metadata>
<defs>
<font id="chivoregular" horiz-adv-x="1259" >
<font-face units-per-em="2048" ascent="1638" descent="-410" />
<missing-glyph horiz-adv-x="499" />
<glyph unicode="&#xfb01;" horiz-adv-x="1230" d="M96 893v154h115v141q0 303 244 303q116 0 192 -39v-141q-61 27 -104 26q-82 0 -111 -29.5t-29 -99.5v-161h244v-154h-244v-893h-192v893h-115zM868 1296v179h201v-179h-201zM872 0v1047h193v-1047h-193z" />
<glyph unicode="&#xfb02;" horiz-adv-x="1243" d="M96 893v154h115v141q0 303 244 303q116 0 192 -39v-141q-61 27 -104 26q-82 0 -111 -29.5t-29 -99.5v-161h244v-154h-244v-893h-192v893h-115zM872 0v1475h193v-1475h-193z" />
<glyph horiz-adv-x="0" />
<glyph unicode="&#xd;" horiz-adv-x="499" />
<glyph horiz-adv-x="0" />
<glyph horiz-adv-x="0" />
<glyph unicode=" "  horiz-adv-x="499" />
<glyph unicode="&#x09;" horiz-adv-x="499" />
<glyph unicode="&#xa0;" horiz-adv-x="499" />
<glyph unicode="!" horiz-adv-x="550" d="M160 356v1049h235q-4 -35 -51 -1049h-184zM174 0v227h207v-227h-207z" />
<glyph unicode="&#x22;" horiz-adv-x="745" d="M131 1104v301h168v-301l-43 -270h-80zM446 1104v301h168v-301l-14 -86l-31 -184h-80z" />
<glyph unicode="#" horiz-adv-x="1316" d="M57 367v155h260l70 318h-248v155h283l96 430h156l-96 -430h307l96 430h156l-97 -430h215v-155h-249l-70 -318h238v-155h-273l-82 -367h-155l81 367h-307l-82 -367h-155l82 367h-226zM473 522h307l70 318h-307z" />
<glyph unicode="$" horiz-adv-x="1118" d="M63 428l3 37h194l-2 -39q0 -104 79 -157.5t212 -53.5q311 0 311 199q0 66 -43 107.5t-108.5 65t-178.5 54.5q-141 39 -227 74t-147.5 104.5t-61.5 184.5q0 180 109.5 269t298.5 101l-23 182h150l-23 -182q190 -10 302 -102t112 -258v-25h-195v29q0 88 -72.5 135 t-191.5 47q-121 0 -196.5 -42t-75.5 -124q0 -61 41 -99t102.5 -60.5t171.5 -53.5q143 -37 232.5 -73.5t153 -110.5t63.5 -195q0 -188 -114 -290.5t-333 -112.5l23 -174h-150l21 176q-213 14 -325 111.5t-112 275.5z" />
<glyph unicode="%" horiz-adv-x="1431" d="M61 936v219q0 106 70 177t178 71h15q108 0 177.5 -70.5t69.5 -177.5v-219q0 -106 -70.5 -177t-176.5 -71h-15q-106 0 -177 70.5t-71 177.5zM193 922q0 -53 33.5 -87t90.5 -34t90 33.5t33 87.5v247q0 53 -32.5 87t-90.5 34q-57 0 -90.5 -33.5t-33.5 -87.5v-247zM219 0 l856 1405h139l-852 -1405h-143zM860 246v219q0 106 70.5 177t177.5 71h14q107 0 177.5 -71t70.5 -177v-219q0 -106 -69.5 -177t-178.5 -71h-14q-109 0 -178.5 70.5t-69.5 177.5zM991 231q0 -53 34 -86.5t91 -33.5t90 33.5t33 86.5v248q0 53 -32.5 87t-90.5 34q-57 0 -91 -34 t-34 -87v-248z" />
<glyph unicode="&#x26;" horiz-adv-x="1355" d="M119 395q0 254 258 330l6 4q-106 47 -168.5 121t-62.5 176q0 135 65.5 225t166.5 132t212 42q80 0 143 -14v-186q-57 18 -114 18q-125 0 -200 -56.5t-75 -156.5q0 -96 79 -158.5t198 -62.5h252l57 293h139v-293h221v-182h-221v-627h-461q-223 0 -359 103.5t-136 291.5z M319 406q0 -109 85 -166.5t239 -57.5h231v445h-233q-156 0 -239 -56.5t-83 -164.5z" />
<glyph unicode="'" horiz-adv-x="430" d="M131 1104v301h168v-301l-45 -270h-80z" />
<glyph unicode="(" horiz-adv-x="591" d="M100 541q0 240 84 462t242 402h106q-124 -195 -194 -418t-70 -444t70 -441.5t194 -423.5h-106q-158 180 -242 401.5t-84 461.5z" />
<glyph unicode=")" horiz-adv-x="589" d="M59 -322q123 195 193 418t70 447q0 217 -71 442t-192 420h107q158 -180 242 -402.5t84 -459.5q0 -240 -84 -462t-242 -403h-107z" />
<glyph unicode="*" horiz-adv-x="958" d="M59 1042l52 158l317 -135l-27 340h162l-33 -342l324 133l47 -160l-338 -78l223 -256l-131 -100l-180 295l-178 -291l-131 99l227 256z" />
<glyph unicode="+" d="M104 436v172h439v439h170v-439h440v-172h-440v-436h-170v436h-439z" />
<glyph unicode="," horiz-adv-x="487" d="M141 0v227h207v-174l-72 -307h-106l55 254h-84z" />
<glyph unicode="-" horiz-adv-x="800" d="M141 453v200h518v-200h-518z" />
<glyph unicode="." horiz-adv-x="489" d="M141 0v227h207v-227h-207z" />
<glyph unicode="/" horiz-adv-x="1228" d="M31 -350l1003 1755h164l-1001 -1755h-166z" />
<glyph unicode="0" d="M145 453v497q0 137 62.5 246t169 169t237.5 60h27q129 0 236.5 -61t171 -170t63.5 -244v-497q0 -133 -61.5 -241t-169 -170t-240.5 -62h-27q-135 0 -242.5 62t-167 171t-59.5 240zM346 438q0 -119 82 -197.5t201 -78.5q123 0 202.5 80t79.5 196v529q0 117 -79.5 196.5 t-202.5 79.5q-119 0 -201 -79t-82 -197v-529z" />
<glyph unicode="1" d="M199 1137v131q244 25 495 137h78v-1223h369v-182h-938v182h368v955h-372z" />
<glyph unicode="2" d="M143 0v49q0 104 50.5 199.5t140.5 163.5l407 307q86 70 123 137.5t37 149.5q0 61 -30.5 115.5t-90 88t-143.5 33.5q-86 0 -152.5 -37t-103.5 -98t-37 -135v-29q0 -16 2 -24h-201l-2 20v16q0 119 53.5 226.5t166 175t284.5 67.5q148 0 250 -59t153.5 -153.5t51.5 -198.5 q0 -147 -59.5 -241.5t-190.5 -194.5l-391 -299q-47 -33 -73 -58.5t-26 -38.5h746v-182h-965z" />
<glyph unicode="3" d="M119 397v17h200v-23q0 -113 76 -171t217 -58q145 0 226.5 58.5t81.5 176.5q0 225 -316 226h-153v184h157q125 0 202 57.5t77 163.5q0 104 -75 159.5t-200 55.5q-117 0 -188.5 -57.5t-71.5 -159.5v-18h-200v36q0 113 60 200t165.5 134t234.5 47h19q133 0 237.5 -49 t161.5 -136t57 -196q0 -117 -58 -191.5t-165 -123.5l2 -6q117 -37 185.5 -124t68.5 -222q0 -115 -63.5 -205t-176 -141t-249.5 -51h-25q-223 0 -355 111.5t-132 305.5z" />
<glyph unicode="4" d="M102 346v184q279 418 437 895h215q-58 -204 -201 -481.5t-260 -415.5h471v408q70 137 110 281h91v-689h178v-182h-178v-346h-201v346h-662z" />
<glyph unicode="5" d="M145 438h201q4 -119 85 -197.5t200 -78.5q127 0 205.5 81t78.5 218q0 123 -79.5 202.5t-196.5 79.5q-174 0 -264 -141l-180 27l57 776h790v-182h-622l-31 -412q133 104 266 104q236 0 348.5 -128t112.5 -332q0 -139 -60.5 -247t-170 -168t-254.5 -60q-137 0 -248 59 t-173.5 163.5t-64.5 235.5z" />
<glyph unicode="6" d="M162 457v495q0 127 63.5 236.5t173 173t236.5 63.5q137 0 244.5 -57t168 -160.5t60.5 -238.5h-201q0 127 -73.5 200.5t-198.5 73.5q-74 0 -136.5 -37t-99.5 -99.5t-37 -135.5v-221q127 135 318 135q123 0 226.5 -57.5t163.5 -157t60 -217.5q0 -139 -61 -247t-172 -167 t-250 -59t-249.5 60t-173 169.5t-62.5 247.5zM362 432q0 -117 82 -193.5t203 -76.5t202 74.5t81 195.5t-81 195.5t-202 74.5t-203 -76.5t-82 -193.5z" />
<glyph unicode="7" d="M150 1223v182h987v-109q-254 -299 -396.5 -604t-142.5 -588v-47l4 -57h-233q0 582 512 1223h-731z" />
<glyph unicode="8" d="M137 379q0 129 61.5 210t176.5 128v8q-113 70 -152 137.5t-39 159.5q0 197 123 300t322 103q200 0 322 -106.5t122 -284.5q0 -111 -46 -180.5t-144 -128.5v-8q117 -53 177 -131t60 -207q0 -188 -128 -293.5t-363 -105.5q-225 0 -358.5 105t-133.5 294zM338 393 q0 -115 82 -173t209 -58q129 0 210 60.5t81 170.5q0 109 -79 171.5t-212 62.5q-201 0 -269 -131q-23 -49 -22 -103zM385 1026q0 -94 66.5 -155.5t177.5 -61.5t177 61.5t66 155.5t-66.5 155.5t-176.5 61.5q-111 0 -177.5 -61.5t-66.5 -155.5z" />
<glyph unicode="9" d="M129 952q0 139 61.5 247t171 167t250.5 59q142 0 251.5 -61t172 -170t62.5 -246v-495q0 -127 -63.5 -237t-173 -173t-236.5 -63q-139 0 -247 58t-167 161.5t-59 236.5h200q0 -127 74 -200.5t199 -73.5q74 0 136 37t99 99t37 136v221q-125 -135 -317 -135 q-123 0 -226.5 57.5t-164 157t-60.5 217.5zM330 973q0 -121 81 -196t201 -75q121 0 203 76t82 195t-82 194.5t-203 75.5q-120 0 -201 -74.5t-81 -195.5z" />
<glyph unicode=":" horiz-adv-x="489" d="M141 0v227h207v-227h-207zM141 817v230h207v-230h-207z" />
<glyph unicode=";" horiz-adv-x="489" d="M141 0v227h207v-174l-72 -307h-106l55 254h-84zM141 817v230h207v-230h-207z" />
<glyph unicode="&#x3c;" d="M90 410v219l1043 403v-184l-879 -328l879 -327v-185z" />
<glyph unicode="=" d="M113 217v170h1032v-170h-1032zM113 651v172h1032v-172h-1032z" />
<glyph unicode="&#x3e;" d="M127 8v185q23 8 49.5 18t56.5 20l771 289l-836 311l-41 17v184l1042 -403v-219z" />
<glyph unicode="?" horiz-adv-x="1028" d="M53 1016q0 98 53.5 192.5t156 155.5t241.5 61h12q137 0 234.5 -58t146.5 -154.5t49 -204.5q0 -117 -51 -192t-143 -154q-63 -57 -93 -96.5t-30 -86.5v-100h-205v131q0 70 41 126t121 132q80 78 118.5 131t38.5 121q0 96 -69.5 159.5t-171.5 63.5q-113 0 -179.5 -63.5 t-66.5 -165.5l4 -76h-201q-6 25 -6 78zM420 0v227h213v-227h-213z" />
<glyph unicode="@" horiz-adv-x="1812" d="M78 549q0 291 107.5 487.5t302 293.5t452.5 97q383 0 597 -193.5t214 -561.5q0 -225 -55.5 -365.5t-142.5 -201t-185 -60.5q-102 0 -151.5 44t-55.5 134l-6 -6q-113 -172 -340 -172q-162 0 -241.5 69.5t-79.5 221.5q0 121 62 189.5t203.5 99t391.5 30.5v90 q0 96 -57.5 137.5t-167.5 41.5q-102 0 -160.5 -42t-58.5 -114v-23h-177q-4 29 -4 64q0 63 50.5 123.5t142.5 97.5t211 37h18q193 0 289 -78t96 -223v-502q0 -78 76 -78q106 0 163.5 121t57.5 369q0 307 -180 473t-512 166q-354 0 -546.5 -200t-192.5 -570 q0 -381 162.5 -563.5t506.5 -182.5q96 0 201 23.5t137 42.5v-123q-76 -31 -179 -43t-159 -12q-389 0 -589.5 215t-200.5 647zM674 324q0 -135 203 -136q117 0 195.5 83t78.5 206v37q-201 0 -303.5 -20.5t-138 -60.5t-35.5 -109z" />
<glyph unicode="A" horiz-adv-x="1335" d="M8 0l549 1405h221l549 -1405h-217l-119 305h-672l-116 -305h-195zM391 487h531l-258 676h-13z" />
<glyph unicode="B" horiz-adv-x="1333" d="M188 0v1405h623q100 0 184 -46t134.5 -125t50.5 -173q0 -125 -61.5 -209t-184.5 -119v-10q121 -18 199.5 -108.5t78.5 -231.5q0 -113 -54 -200t-144 -135t-191 -48h-635zM389 182h402q92 0 156.5 64.5t64.5 156.5t-64.5 157t-156.5 65h-402v-443zM389 807h381 q82 0 145.5 59.5t63.5 147.5q0 86 -61.5 147.5t-147.5 61.5h-381v-416z" />
<glyph unicode="C" horiz-adv-x="1357" d="M127 610v185q0 295 152.5 462.5t425.5 167.5q163 0 286 -67.5t189.5 -193.5t66.5 -298h-200q0 178 -88.5 277.5t-253.5 99.5q-184 0 -280.5 -113.5t-96.5 -334.5v-185q0 -219 94 -333.5t278 -114.5q172 0 263.5 98t91.5 275h192q0 -170 -66.5 -295t-189.5 -192.5 t-286 -67.5q-272 0 -425 166.5t-153 463.5z" />
<glyph unicode="D" horiz-adv-x="1382" d="M188 0v1405h488q176 0 307 -77t202.5 -219t71.5 -335v-143q0 -193 -71.5 -335t-202.5 -219t-307 -77h-488zM389 182h287q182 0 281.5 114t99.5 335v143q0 217 -97.5 333t-283.5 116h-287v-1041z" />
<glyph unicode="E" horiz-adv-x="1214" d="M188 0v1405h922l-27 -182h-694v-414h629v-182h-629v-445h707l28 -182h-936z" />
<glyph unicode="F" horiz-adv-x="1126" d="M188 0v1405h885l-26 -182h-658v-428h574v-183h-574v-612h-201z" />
<glyph unicode="G" horiz-adv-x="1386" d="M127 610v185q0 295 152.5 462.5t425.5 167.5q163 0 285 -63.5t187.5 -180t65.5 -270.5h-201q0 158 -87 245t-250 87q-184 0 -280.5 -113.5t-96.5 -334.5v-185q0 -221 95 -334.5t282 -113.5q178 0 260 89t82 284v26h-398v180h594v-479q0 -170 12 -262h-118q-27 84 -41 168 q-133 -188 -391 -188q-272 0 -425 166.5t-153 463.5z" />
<glyph unicode="H" horiz-adv-x="1419" d="M188 0v1405h201v-596h641v596h201v-1405h-201v627h-641v-627h-201z" />
<glyph unicode="I" horiz-adv-x="745" d="M109 0v182h163v1041h-163v182h528v-182h-164v-1041h164v-182h-528z" />
<glyph unicode="J" horiz-adv-x="1077" d="M59 383v43h201v-55q0 -92 62.5 -150.5t158.5 -58.5t156.5 57t60.5 152v1034h201v-1022q0 -186 -114.5 -294.5t-301.5 -108.5h-18q-186 0 -296 104t-110 299z" />
<glyph unicode="K" horiz-adv-x="1275" d="M188 0v1405h201v-731l610 731h232l-516 -621l532 -784h-233l-426 631l-199 -209v-422h-201z" />
<glyph unicode="L" horiz-adv-x="1097" d="M188 0v1405h201v-1223h645l29 -182h-875z" />
<glyph unicode="M" horiz-adv-x="1921" d="M188 0v1405h316l452 -1106h9l454 1106h314v-1405h-201v1169h-12l-486 -1169h-170l-483 1169h-10v-1169h-183z" />
<glyph unicode="N" horiz-adv-x="1421" d="M188 0v1405h177l679 -1016l7 2v1014h182v-1405h-170l-686 1028l-6 -2v-1026h-183z" />
<glyph unicode="O" horiz-adv-x="1413" d="M125 610v185q0 195 72.5 337t203.5 217.5t306 75.5q174 0 305 -75.5t203.5 -218t72.5 -336.5v-185q0 -195 -72.5 -337t-203.5 -217.5t-305 -75.5t-305.5 75.5t-204 218t-72.5 336.5zM326 610q0 -219 97 -333.5t284 -114.5q180 0 280 113.5t100 334.5v185q0 219 -97 333.5 t-283 114.5q-181 0 -281 -114.5t-100 -333.5v-185z" />
<glyph unicode="P" horiz-adv-x="1277" d="M188 0v1405h607q118 0 214.5 -53.5t150.5 -146.5t54 -210t-54 -210t-150.5 -146t-214.5 -53h-406v-586h-201zM389 768h387q96 0 167 66.5t71 160.5q0 96 -71 162t-167 66h-387v-455z" />
<glyph unicode="Q" horiz-adv-x="1413" d="M125 610v185q0 195 72.5 337t203.5 217.5t306 75.5q174 0 305 -75.5t203.5 -218t72.5 -336.5v-185q0 -256 -123 -420.5t-342 -199.5q18 -70 72.5 -101.5t130.5 -31.5q92 0 215 49l25 8v-143q-119 -68 -244 -68q-201 0 -287 77t-110 204q-238 29 -369 193.5t-131 432.5z M326 610q0 -219 97 -333.5t284 -114.5q180 0 280 113.5t100 334.5v185q0 219 -97 333.5t-283 114.5q-181 0 -281 -114.5t-100 -333.5v-185z" />
<glyph unicode="R" horiz-adv-x="1372" d="M188 0v1405h598q187 0 306.5 -88t119.5 -242q0 -137 -72.5 -233.5t-178.5 -116.5v-10q98 -39 161.5 -135.5t63.5 -231.5q0 -113 12 -170t32.5 -79.5t59.5 -35.5v-57q-45 -18 -96 -18q-98 0 -153.5 58t-55.5 220q0 166 -68.5 259t-171.5 93h-356v-618h-201zM389 801h399 q88 0 156 59.5t68 147.5v8q0 90 -61.5 148.5t-162.5 58.5h-399v-422z" />
<glyph unicode="S" horiz-adv-x="1284" d="M106 399l3 41h200l-2 -43q0 -119 89 -177t247 -58q154 0 243 56t89 155q0 78 -48 126t-121 74.5t-198 59.5q-154 41 -246 78t-157.5 113.5t-65.5 201.5q0 203 137.5 301t366.5 98q231 0 363.5 -102t132.5 -291v-24h-201v30q0 98 -80 151.5t-211 53.5q-145 0 -226 -48 t-81 -138q0 -68 46 -111t114.5 -67.5t189.5 -55.5q156 -41 252 -79.5t165 -116.5t69 -207q0 -229 -140.5 -334.5t-394.5 -105.5t-394.5 107.5t-140.5 311.5z" />
<glyph unicode="T" horiz-adv-x="1183" d="M51 1223v182h1082v-182h-441v-1223h-200v1223h-441z" />
<glyph unicode="U" horiz-adv-x="1392" d="M176 449v956h201v-952q0 -131 91 -211t232 -80q145 0 230.5 80t85.5 211v952h201v-956q0 -139 -62.5 -246t-178.5 -165t-267 -58h-27q-152 0 -265.5 57t-177 163.5t-63.5 248.5z" />
<glyph unicode="V" horiz-adv-x="1234" d="M10 1405h215l396 -1133h12l397 1133h195l-500 -1405h-215z" />
<glyph unicode="W" horiz-adv-x="1875" d="M29 1405h215l297 -1059h12l299 1059h195l296 -1059h13l299 1059h194l-411 -1405h-205l-287 1016h-14l-297 -1016h-205z" />
<glyph unicode="X" horiz-adv-x="1292" d="M18 0l512 727l-464 676h241l344 -502q113 158 240 342l84 119l29 41h223l-465 -664l510 -739h-242l-389 565l-399 -565h-224z" />
<glyph unicode="Y" horiz-adv-x="1171" d="M-10 1405h229l375 -653h8l371 653h207l-494 -862v-543h-201v543z" />
<glyph unicode="Z" horiz-adv-x="1220" d="M66 0v78l747 1145h-698v182h1005v-78l-749 -1145h766v-182h-1071z" />
<glyph unicode="[" horiz-adv-x="600" d="M174 -330v1735h346v-113h-180v-1509h180v-113h-346z" />
<glyph unicode="\" horiz-adv-x="1228" d="M31 1405h164l1003 -1755h-166z" />
<glyph unicode="]" horiz-adv-x="600" d="M80 -217h180v1509h-180v113h346v-1735h-346v113z" />
<glyph unicode="^" horiz-adv-x="1220" d="M100 0l404 1047h211l403 -1047h-172l-287 733q-12 33 -24 65.5t-25 63.5l-338 -862h-172z" />
<glyph unicode="_" horiz-adv-x="1421" d="M199 -131h1024v-123h-1024v123z" />
<glyph unicode="`" horiz-adv-x="681" d="M139 1468l2 7h183l194 -297h-143z" />
<glyph unicode="a" horiz-adv-x="1198" d="M98 291q0 127 65.5 199.5t217 105.5t418.5 33v96q0 104 -61.5 146t-178.5 42q-111 0 -172 -43t-61 -120v-25h-189q-4 29 -4 68q0 72 57.5 135t155.5 101t217 38h19q206 0 307.5 -82t101.5 -237v-543q0 -37 16.5 -54.5t41.5 -17.5q47 0 94 29v-142q-68 -40 -154 -40h-4 q-88 0 -131 50t-47 138q-127 -188 -367 -188q-172 0 -257 74.5t-85 236.5zM291 274q0 -141 215 -141q76 0 143.5 38t108.5 107.5t41 159.5v41q-215 0 -324.5 -21.5t-146.5 -64.5t-37 -119z" />
<glyph unicode="b" horiz-adv-x="1193" d="M170 0v1475h192v-562q47 68 128 111t176 43q201 0 311 -140.5t110 -379.5v-23q0 -254 -113.5 -399t-309.5 -145q-233 0 -353 186l-67 -166h-74zM360 522q0 -201 66 -295t201 -94q268 0 268 389q0 201 -67.5 296t-200.5 95q-138 0 -202.5 -95t-64.5 -296z" />
<glyph unicode="c" horiz-adv-x="1114" d="M104 498v49q0 156 57.5 273.5t162 182t239.5 64.5h17q125 0 224 -54.5t154.5 -152.5t55.5 -225h-191q0 127 -64.5 202.5t-185.5 75.5q-127 0 -201.5 -85t-74.5 -232v-111q0 -178 73.5 -265t209.5 -87q125 0 187 75t62 202h185q0 -197 -118 -313.5t-314 -116.5h-17 q-139 0 -243.5 64.5t-161 181t-56.5 272.5z" />
<glyph unicode="d" horiz-adv-x="1193" d="M106 524v23q0 240 112 380t312 140q195 0 301 -154v562h193v-1475h-143q-14 66 -27 143q-116 -163 -321 -163h-3q-197 0 -310.5 145t-113.5 399zM299 522q0 -201 65.5 -295t200.5 -94q268 0 269 389q0 201 -68 296t-201 95q-137 0 -201.5 -95t-64.5 -296z" />
<glyph unicode="e" horiz-adv-x="1138" d="M104 502v41q0 156 57.5 274.5t164 184t249.5 65.5h15q129 0 228.5 -54.5t154.5 -154.5t55 -233v-146h-731q4 -166 78 -256t219 -90q129 0 190.5 76t61.5 180h182q0 -123 -56.5 -215t-155.5 -143t-226 -51h-8q-221 0 -349.5 142t-128.5 380zM301 629h537v24 q0 117 -71 188.5t-187 71.5q-117 0 -190 -71.5t-89 -212.5z" />
<glyph unicode="f" horiz-adv-x="692" d="M96 893v154h115v141q0 303 244 303q116 0 192 -39v-141q-59 26 -101 26h-3q-82 0 -111 -29.5t-29 -99.5v-161h244v-154h-244v-893h-192v893h-115z" />
<glyph unicode="g" horiz-adv-x="1163" d="M74 -139q0 86 42 149.5t111 93.5q-94 57 -94 170q0 74 43 127.5t121 79.5q-137 76 -137 256q0 152 111.5 241t310.5 89h8q115 0 209 -35q145 72 166 203h163q0 -105 -55 -175.5t-153 -90.5l-5 -6q102 -90 103 -226q0 -147 -110.5 -237t-301.5 -90h-139q-61 0 -102 -32 t-41 -81t38.5 -78t104.5 -29h395q121 0 193.5 -75.5t72.5 -192.5q0 -139 -105 -223t-284 -84h-411q-70 0 -128.5 37t-92 93t-33.5 116zM264 -113q0 -49 35 -83.5t84 -34.5h395q66 0 113 37.5t47 87.5q0 51 -35 81.5t-98 30.5h-422q-49 0 -84 -34.5t-35 -84.5zM350 737 q0 -92 64.5 -133t173.5 -41t174 41t65 133t-65.5 134t-173.5 42q-109 0 -173.5 -42t-64.5 -134z" />
<glyph unicode="h" horiz-adv-x="1214" d="M170 0v1475h192v-560q129 152 324 152q172 0 270.5 -92t98.5 -270v-705h-193v670q0 243 -219 243h-2q-74 0 -137.5 -38.5t-102.5 -105.5t-39 -146v-623h-192z" />
<glyph unicode="i" horiz-adv-x="532" d="M166 1296v179h201v-179h-201zM170 0v1047h192v-1047h-192z" />
<glyph unicode="j" horiz-adv-x="532" d="M-70 -199q66 -30 105 -30h2q76 0 104.5 31.5t28.5 107.5v1137h192v-1078q0 -186 -57 -268t-199 -82q-106 0 -176 39v143zM166 1296v179h201v-179h-201z" />
<glyph unicode="k" horiz-adv-x="1095" d="M170 0v1475h192v-1012l467 584h211l-403 -508l430 -539h-233l-314 389l-158 -164v-225h-192z" />
<glyph unicode="l" horiz-adv-x="548" d="M178 0v1475h193v-1475h-193z" />
<glyph unicode="m" horiz-adv-x="1775" d="M170 0v1047h139l27 -154q119 174 330 174q207 0 286 -174q70 98 150 136t172 38q162 0 252 -94t90 -268v-705h-193v670q0 243 -186 243h-2q-66 0 -122 -38.5t-90 -105.5t-34 -146v-623h-192v670q0 243 -187 243h-2q-66 0 -122 -38.5t-90 -105.5t-34 -146v-623h-192z" />
<glyph unicode="n" horiz-adv-x="1214" d="M170 0v1047h139l27 -154q131 174 350 174q172 0 270.5 -92t98.5 -270v-705h-193v670q0 243 -219 243h-2q-74 0 -137.5 -38.5t-102.5 -105.5t-39 -146v-623h-192z" />
<glyph unicode="o" horiz-adv-x="1175" d="M106 485v76q0 236 131.5 371t350.5 135t350 -135t131 -371v-76q0 -236 -129 -370.5t-352 -134.5t-352.5 135t-129.5 370zM299 504q0 -178 75 -274.5t214 -96.5q135 0 212 95.5t77 275.5v39q0 178 -75 274t-214 96q-137 0 -213 -94t-76 -276v-39z" />
<glyph unicode="p" horiz-adv-x="1193" d="M170 -371v1418h143q14 -66 27 -144q117 164 324 164q198 0 310.5 -145.5t112.5 -399.5v-22q0 -242 -111.5 -381t-311.5 -139q-193 0 -302 153v-504h-192zM360 524q0 -201 67 -296t202 -95t200.5 96.5t65.5 294.5q0 201 -66.5 295t-199.5 94q-140 0 -204.5 -96t-64.5 -293 z" />
<glyph unicode="q" horiz-adv-x="1193" d="M106 500v22q0 256 113 400.5t311 144.5q234 0 353 -186l67 166h74v-1416h-193v502q-47 -68 -127.5 -110.5t-175.5 -42.5q-201 0 -311.5 140t-110.5 380zM299 524q0 -201 66.5 -296t201.5 -95t201 96.5t66 294.5q0 201 -67 295t-200 94q-139 0 -203.5 -96t-64.5 -293z" />
<glyph unicode="r" horiz-adv-x="1003" d="M170 0v1047h137l29 -156q12 41 55 82t107.5 67.5t142.5 26.5q145 0 227 -93t82 -235l-6 -77h-170v45q0 61 -30.5 108t-78 72.5t-94.5 25.5q-98 0 -153.5 -77.5t-55.5 -210.5v-625h-192z" />
<glyph unicode="s" horiz-adv-x="1093" d="M94 283v45h191v-21q0 -174 293 -174q86 0 154.5 39t68.5 107q0 57 -38 89.5t-93.5 49t-153.5 33.5q-127 25 -205 50t-133 86.5t-55 168.5q0 145 114.5 228t313.5 83h18q117 0 208 -37t141.5 -102.5t50.5 -145.5l-2 -37h-191v19q0 149 -228 149h-3q-229 0 -230 -137 q0 -63 65.5 -93t201.5 -56q129 -27 212 -55.5t141 -90t58 -166.5q0 -168 -114.5 -251.5t-329.5 -83.5h-31q-129 0 -225 40q-97 39 -149 108q-51 66 -50 149v6z" />
<glyph unicode="t" horiz-adv-x="708" d="M88 893v154h121l65 333h121v-333h244v-154h-244v-625q0 -74 29 -106.5t88 -32.5q53 0 127 31v-144q-72 -36 -184 -36h-6q-121 0 -183.5 71.5t-62.5 227.5v614h-115z" />
<glyph unicode="u" horiz-adv-x="1265" d="M160 342v705h192v-670q0 -244 221 -244q72 0 136.5 39t103.5 105.5t39 146.5v623h192v-842q0 -37 16.5 -54.5t41.5 -17.5q45 0 92 29v-142q-62 -40 -126 -40h-3q-111 0 -155 45t-48 127q-55 -82 -142 -127t-200 -45q-158 0 -259 93t-101 269z" />
<glyph unicode="v" horiz-adv-x="1048" d="M25 1047h204l299 -801h9l299 801h188l-397 -1047h-205z" />
<glyph unicode="w" horiz-adv-x="1660" d="M41 1047h199l243 -766h9l247 766h189l243 -766h9l247 766h189l-342 -1047h-201l-242 731h-8l-237 -731h-201z" />
<glyph unicode="x" horiz-adv-x="1062" d="M37 0l385 530l-365 517h230l252 -357l258 357h211l-367 -504l385 -543h-229l-273 383l-276 -383h-211z" />
<glyph unicode="y" horiz-adv-x="1048" d="M25 1047h204l301 -773h9l297 773h188l-391 -1006q-70 -172 -129.5 -263t-120.5 -125t-143 -34q-76 0 -144 29v157q66 -28 101 -28h2q84 0 140 56t93 177z" />
<glyph unicode="z" horiz-adv-x="948" d="M74 0v78l510 815h-480v154h746v-76l-512 -817h528v-154h-792z" />
<glyph unicode="{" horiz-adv-x="645" d="M82 459v162q70 0 114 29.5t44 86.5v381q0 154 78.5 220.5t244.5 66.5v-102q-162 0 -162 -156q0 -129 -10 -303l-4 -84q-4 -106 -45 -158.5t-137 -52.5v-19q96 0 137 -52t45 -159l4 -90q10 -170 10 -278q0 -109 42 -141.5t120 -32.5v-103q-170 0 -246.5 68t-76.5 219v381 q0 51 -43 84t-115 33z" />
<glyph unicode="|" horiz-adv-x="507" d="M172 -408v1885h164v-1885h-164z" />
<glyph unicode="}" horiz-adv-x="645" d="M82 -223q162 0 162 157q0 127 10 302l4 83q4 106 45 158.5t137 52.5v19q-96 0 -137 52t-45 159l-4 88q-10 174 -10 282q0 106 -43 139.5t-119 33.5v102q170 0 247 -67.5t77 -219.5v-381q0 -55 40.5 -85.5t116.5 -30.5v-162q-70 0 -113.5 -30t-43.5 -87v-381 q0 -156 -79 -221.5t-245 -65.5v103z" />
<glyph unicode="~" horiz-adv-x="1411" d="M131 432v174q70 74 162 117t172 43q57 0 109.5 -16.5t127.5 -49.5q76 -35 132.5 -52t119.5 -17q84 0 176.5 43t155.5 117v-175q-59 -68 -149 -113.5t-181 -45.5q-61 0 -116.5 17.5t-126.5 49.5q-82 35 -135.5 51.5t-114.5 16.5q-80 0 -171 -42t-161 -118z" />
<glyph unicode="&#xa1;" horiz-adv-x="520" d="M156 817v227h206v-227h-206zM193 -360v1046h184v-1046h-184z" />
<glyph unicode="&#xa2;" horiz-adv-x="1079" d="M98 678v49q0 147 51.5 262t145.5 181.5t219 74.5l-20 174h149l-22 -174q174 -18 280.5 -129.5t106.5 -300.5h-191q0 127 -64.5 203t-185.5 76q-127 0 -201.5 -85t-74.5 -233v-110q0 -178 73.5 -265.5t208.5 -87.5q125 0 187.5 75t62.5 202h185q0 -184 -105.5 -300 t-281.5 -128l22 -176h-149l20 176q-188 12 -302 151.5t-114 364.5z" />
<glyph unicode="&#xa3;" horiz-adv-x="1222" d="M59 600v182h258v240q0 186 115 294.5t301 108.5h19q186 0 295.5 -104t109.5 -299v-18h-201v30q0 92 -62.5 150.5t-156.5 58.5q-98 0 -158.5 -56.5t-60.5 -152.5v-252h383v-182h-383l-35 -418h621v-182h-971v182h184v418h-258z" />
<glyph unicode="&#xa4;" horiz-adv-x="1277" d="M127 272l109 109q-104 139 -105 307q0 164 102 309l-104 107l98 98l105 -106q145 102 309 102q168 0 307 -106l111 110l98 -98l-110 -111q100 -137 100 -303q0 -168 -105 -307l113 -111l-98 -98l-113 111q-139 -102 -305 -103q-168 0 -305 101l-109 -109zM272 690 q0 -100 49.5 -184t133.5 -133t184 -49q98 0 182 50t134.5 134t50.5 182t-50.5 182t-134.5 134.5t-182 50.5t-182 -50.5t-134.5 -134.5t-50.5 -182z" />
<glyph unicode="&#xa5;" horiz-adv-x="1298" d="M53 1405h230l374 -653h9l370 653h207l-289 -504h228v-131h-303l-84 -149h387v-132h-432v-489h-201v489h-428v132h383l-86 149h-297v131h221z" />
<glyph unicode="&#xa6;" horiz-adv-x="550" d="M184 0v545h183v-545h-183zM184 858v547h183v-547h-183z" />
<glyph unicode="&#xa7;" horiz-adv-x="1052" d="M78 537q0 203 174 307q-72 51 -111 115.5t-39 154.5q0 145 115 228t313 83h19q117 0 208 -36.5t141 -102t50 -145.5l-2 -37h-190v18q0 150 -232 150q-229 0 -229 -137q0 -59 40 -105.5t100.5 -79t162.5 -80.5q123 -53 196.5 -96t126 -108.5t52.5 -157.5q0 -199 -176 -307 q152 -109 151 -262q0 -152 -113.5 -236t-314.5 -84h-18q-117 0 -208 37t-141.5 102.5t-50.5 145.5l2 37h191v-19q0 -150 231 -149q113 0 171.5 35.5t58.5 101.5q0 86 -76 141t-227 121q-123 53 -197 96t-126 109.5t-52 159.5zM268 592q0 -68 40 -116t99.5 -81t163.5 -80 q31 -12 93 -41q119 80 118 181q0 61 -40 108t-101 82t-170 84l-84 39q-119 -72 -119 -176z" />
<glyph unicode="&#xa8;" horiz-adv-x="901" d="M166 1296v201h184v-201h-184zM551 1296v201h186v-201h-186z" />
<glyph unicode="&#xa9;" horiz-adv-x="1597" d="M74 705q0 197 97 362.5t263 261.5t365 96q196 0 363 -97t264.5 -262t97.5 -361q0 -199 -97.5 -365t-264.5 -263t-363 -97q-199 0 -365 97t-263 263t-97 365zM156 705q0 -180 84 -328t230 -232t329 -84q176 0 323.5 84t232.5 231.5t85 325.5q0 182 -87 329t-234.5 228.5 t-319.5 81.5q-183 0 -329 -85t-230 -230t-84 -321zM453 614v177q0 160 94 254t252 94h10q156 0 245 -88t89 -256h-137v26q0 88 -56.5 144.5t-144.5 56.5q-96 0 -155.5 -51t-59.5 -150v-235q0 -96 59.5 -149.5t157.5 -53.5q90 0 146.5 58.5t56.5 164.5h133q0 -162 -91 -252 t-241 -90h-10q-158 0 -253 95.5t-95 254.5z" />
<glyph unicode="&#xaa;" horiz-adv-x="849" d="M113 946q0 82 41 128t132 65.5t253 19.5v58q0 115 -146 114q-66 0 -104.5 -25.5t-38.5 -72.5v-16h-113q-4 20 -4 28q0 80 73 130t189 50h11q249 1 249 -194v-330q0 -20 11.5 -31.5t25.5 -11.5q12 0 56 16v-86q-49 -25 -95 -24q-100 0 -110 115q-78 -115 -221 -115 q-209 0 -209 182zM229 952q0 -53 32 -73.5t101 -20.5q70 0 123.5 50t53.5 134v27q-160 0 -235 -24.5t-75 -92.5z" />
<glyph unicode="&#xab;" horiz-adv-x="942" d="M100 690l250 357h105l-193 -357l193 -356h-105zM473 690l252 357h102l-190 -357l190 -356h-102z" />
<glyph unicode="&#xac;" horiz-adv-x="1263" d="M76 737v191h1063v-572h-172v381h-891z" />
<glyph unicode="&#xad;" horiz-adv-x="800" d="M141 453v200h518v-200h-518z" />
<glyph unicode="&#xae;" horiz-adv-x="1597" d="M74 705q0 197 97 362.5t263 261.5t365 96q196 0 363 -97t264.5 -262t97.5 -361q0 -199 -97.5 -365t-264.5 -263t-363 -97q-199 0 -365 97t-263 263t-97 365zM156 705q0 -180 84 -328t230 -232t329 -84q178 0 324.5 83t232.5 230.5t86 330.5q0 184 -87 330.5t-234.5 227 t-321.5 80.5q-183 0 -329 -84.5t-230 -230t-84 -323.5zM504 276v844h383q90 0 161.5 -60.5t71.5 -139.5q0 -78 -40 -132.5t-97 -76.5q66 -27 88.5 -83.5t32.5 -150.5q6 -70 18.5 -107.5t46.5 -50.5v-36q-31 -12 -61 -13q-70 0 -101.5 37t-31.5 113q0 127 -40 180t-97 53 h-203v-377h-131zM635 764h227q53 0 91 35t38 84v8q0 49 -38 83t-91 34h-227v-244z" />
<glyph unicode="&#xaf;" horiz-adv-x="942" d="M145 1356v151h652v-151h-652z" />
<glyph unicode="&#xb0;" horiz-adv-x="806" d="M96 1118q0 78 40 149.5t110.5 114.5t156.5 43q80 0 151 -43t114 -113.5t43 -150.5q0 -84 -43 -154.5t-114 -111.5t-151 -41t-150.5 41t-113.5 111.5t-43 154.5zM211 1116q0 -78 56.5 -131t135.5 -53q78 0 134.5 54t56.5 130t-56.5 130t-136.5 54q-77 0 -133.5 -53 t-56.5 -131z" />
<glyph unicode="&#xb1;" d="M104 573v172h439v302h170v-302h440v-172h-440v-299h-170v299h-439zM113 0v170h1030v-170h-1030z" />
<glyph unicode="&#xb2;" horiz-adv-x="786" d="M125 854v27q0 125 104 200l226 168q88 63 88 160q0 55 -39 92t-113 37q-78 0 -116.5 -48t-38.5 -101v-29h-109q-2 6 -2 22q0 23 8 62t31 78q72 117 235 116q113 0 183.5 -64.5t70.5 -152.5q0 -78 -27.5 -132t-111.5 -118l-215 -163q-53 -41 -53 -54h409v-100h-530z" />
<glyph unicode="&#xb3;" horiz-adv-x="743" d="M86 1073v8h111v-12q0 -125 159 -125q80 0 125 33t45 100q0 63 -49 92t-125 29h-84v100h86q68 0 111 33t43 92q0 57 -41 86t-107 29q-63 0 -104 -30.5t-41 -88.5v-10h-111v21q0 96 71 152t183 56h11q108 0 178.5 -57t70.5 -151q0 -115 -122 -175q141 -51 141 -192 q0 -98 -75 -158.5t-193 -60.5h-15q-127 0 -197.5 61.5t-70.5 167.5z" />
<glyph unicode="&#xb4;" horiz-adv-x="681" d="M139 1178l193 297h184l2 -7l-237 -290h-142z" />
<glyph unicode="&#xb5;" horiz-adv-x="1253" d="M168 -330v1377h192v-670q0 -244 222 -244q72 0 136 39t103 105.5t39 146.5v623h193v-842q0 -37 16 -54.5t41 -17.5q45 0 92 29v-142q-63 -41 -129 -40q-111 0 -155 45t-48 127q-51 -78 -139 -125t-190 -47q-111 0 -193 51l12 -97v-264h-192z" />
<glyph unicode="&#xb6;" horiz-adv-x="1073" d="M51 956q0 121 59.5 224.5t162 164t225.5 60.5h487v-125h-135v-1626h-129v1626h-148v-1626h-129v858q-111 14 -200.5 75.5t-141 158t-51.5 210.5z" />
<glyph unicode="&#xb7;" horiz-adv-x="489" d="M141 475v230h207v-230h-207z" />
<glyph unicode="&#xb8;" horiz-adv-x="716" d="M143 -358l19 100q86 -41 149 -41q135 0 135 92q0 39 -30.5 61.5t-75.5 22.5h-43v88h49q227 0 227 -182q0 -84 -64.5 -135t-150.5 -51q-133 0 -215 45z" />
<glyph unicode="&#xb9;" horiz-adv-x="684" d="M102 864v101h203v518h-203v71q117 10 271 76h43v-665h166v-101h-480z" />
<glyph unicode="&#xba;" horiz-adv-x="802" d="M109 1071v47q0 143 77.5 225t214.5 82q138 0 215.5 -81.5t77.5 -225.5v-47q0 -145 -78.5 -226t-214.5 -81q-135 0 -213.5 81t-78.5 226zM225 1083q0 -115 49.5 -170t126.5 -55q78 0 127.5 55.5t49.5 169.5v23q0 115 -49.5 170t-127.5 55q-77 0 -126.5 -55t-49.5 -170v-23 z" />
<glyph unicode="&#xbb;" horiz-adv-x="942" d="M115 334l192 356l-192 357h104l252 -357l-252 -356h-104zM489 334l191 356l-191 357h103l250 -357l-250 -356h-103z" />
<glyph unicode="&#xbc;" horiz-adv-x="1437" d="M74 635v100h202v518h-202v72q117 10 270 76h43v-666h166v-100h-479zM293 0l860 1405h107l-854 -1405h-113zM823 186v103q152 229 236 477h112q-36 -141 -116 -283.5t-129 -195.5h252v215q41 84 59 151h51v-366h94v-101h-94v-186h-110v186h-355z" />
<glyph unicode="&#xbd;" horiz-adv-x="1486" d="M68 635v100h202v518h-202v72q117 10 270 76h43v-666h166v-100h-479zM252 0l860 1405h107l-854 -1405h-113zM895 0v27q0 125 104 200l226 168q88 63 88 160q0 55 -39 92t-113 37q-78 0 -116.5 -48t-38.5 -101v-29h-109q-2 6 -2 22q0 23 8 62t31 78q72 117 235 116 q111 0 182.5 -64.5t71.5 -152.5q0 -78 -27.5 -132t-111.5 -118l-215 -163q-53 -41 -53 -54h409v-100h-530z" />
<glyph unicode="&#xbe;" horiz-adv-x="1429" d="M63 840v8h111v-12q0 -125 160 -125q80 0 125 32.5t45 100.5q0 63 -49 92t-125 29h-84v100h86q68 0 110.5 32.5t42.5 92.5q0 57 -41 86t-106 29q-63 0 -104 -31t-41 -88v-10h-111v20q0 96 70.5 152.5t183.5 56.5h10q109 0 179.5 -57.5t70.5 -151.5q0 -115 -123 -174 q141 -53 141 -193q0 -98 -74.5 -158.5t-193.5 -60.5h-14q-127 0 -198 61.5t-71 168.5zM293 0l860 1405h107l-854 -1405h-113zM813 186v103q152 229 236 477h112q-37 -141 -116.5 -283.5t-129.5 -195.5h252v215q41 84 60 151h51v-366h94v-101h-94v-186h-111v186h-354z" />
<glyph unicode="&#xbf;" horiz-adv-x="1013" d="M72 41q0 80 26.5 140.5t64.5 101.5t97 92q66 55 97.5 96t31.5 96v101h205v-131q0 -72 -41 -128.5t-121 -129.5q-80 -76 -119 -130.5t-39 -121.5q0 -96 68 -160t174 -64q113 0 179.5 62.5t66.5 167.5l-4 76h200q6 -25 7 -78q0 -98 -52.5 -192.5t-155 -156t-243.5 -61.5 h-12q-135 0 -232.5 57.5t-147.5 153.5t-50 209zM385 819v228h213v-228h-213z" />
<glyph unicode="&#xc0;" horiz-adv-x="1335" d="M8 0l549 1405h221l549 -1405h-217l-119 305h-672l-116 -305h-195zM358 1827l2 6h183l194 -297h-143zM391 487h531l-258 676h-13z" />
<glyph unicode="&#xc1;" horiz-adv-x="1335" d="M8 0l549 1405h221l549 -1405h-217l-119 305h-672l-116 -305h-195zM391 487h531l-258 676h-13zM598 1536l193 297h184l2 -6l-238 -291h-141z" />
<glyph unicode="&#xc2;" horiz-adv-x="1335" d="M8 0l549 1405h221l549 -1405h-217l-119 305h-672l-116 -305h-195zM305 1536l279 297h159l277 -297h-164l-192 182l-195 -182h-164zM391 487h531l-258 676h-13z" />
<glyph unicode="&#xc3;" horiz-adv-x="1335" d="M8 0l549 1405h221l549 -1405h-217l-119 305h-672l-116 -305h-195zM268 1536q0 86 61.5 149.5t166.5 63.5q47 0 86 -9t98 -28q117 -35 164 -35q90 0 112 72h103q0 -92 -63.5 -152.5t-166.5 -60.5q-70 0 -143 23q-18 4 -33.5 9t-29.5 9q-51 16 -79 22.5t-61 6.5 q-92 0 -112 -70h-103zM391 487h531l-258 676h-13z" />
<glyph unicode="&#xc4;" horiz-adv-x="1335" d="M8 0l549 1405h221l549 -1405h-217l-119 305h-672l-116 -305h-195zM377 1534v201h184v-201h-184zM391 487h531l-258 676h-13zM762 1534v201h186v-201h-186z" />
<glyph unicode="&#xc5;" horiz-adv-x="1335" d="M8 0l549 1405h221l549 -1405h-217l-119 305h-672l-116 -305h-195zM391 487h531l-258 676h-13zM461 1690q0 86 60.5 146t146.5 60q80 0 143 -60t63 -146q0 -84 -60 -144.5t-146 -60.5q-84 0 -145.5 59.5t-61.5 145.5zM553 1690q0 -47 32.5 -78t82.5 -31q47 0 80.5 32 t33.5 79q0 45 -33.5 76.5t-80.5 31.5t-81 -31.5t-34 -78.5z" />
<glyph unicode="&#xc6;" horiz-adv-x="2013" d="M14 0l746 1405h1149l-27 -182h-856l102 -414h689v-182h-643l110 -445h610l29 -182h-809l-76 305h-671l-160 -305h-193zM465 487h530l-164 676h-12z" />
<glyph unicode="&#xc7;" horiz-adv-x="1357" d="M127 610v185q0 295 152.5 462.5t425.5 167.5q163 0 286 -67.5t189.5 -193.5t66.5 -298h-200q0 178 -88.5 277.5t-253.5 99.5q-184 0 -280.5 -113.5t-96.5 -334.5v-185q0 -219 94 -333.5t278 -114.5q172 0 263.5 98t91.5 275h192q0 -170 -66.5 -295t-189.5 -192.5 t-286 -67.5q-272 0 -425 166.5t-153 463.5zM489 -358l19 100q86 -41 147 -41q137 0 138 92q0 39 -31 61.5t-76 22.5h-43v88h49q228 0 228 -182q0 -84 -64.5 -135t-150.5 -51q-133 0 -216 45z" />
<glyph unicode="&#xc8;" horiz-adv-x="1214" d="M188 0v1405h922l-27 -182h-694v-414h629v-182h-629v-445h707l28 -182h-936zM369 1827l2 6h182l195 -297h-144z" />
<glyph unicode="&#xc9;" horiz-adv-x="1214" d="M188 0v1405h922l-27 -182h-694v-414h629v-182h-629v-445h707l28 -182h-936zM582 1536l192 297h184l3 -6l-238 -291h-141z" />
<glyph unicode="&#xca;" horiz-adv-x="1214" d="M188 0v1405h922l-27 -182h-694v-414h629v-182h-629v-445h707l28 -182h-936zM287 1536l278 297h160l276 -297h-163l-193 182l-194 -182h-164z" />
<glyph unicode="&#xcb;" horiz-adv-x="1214" d="M188 0v1405h922l-27 -182h-694v-414h629v-182h-629v-445h707l28 -182h-936zM365 1536v201h184v-201h-184zM750 1536v201h186v-201h-186z" />
<glyph unicode="&#xcc;" horiz-adv-x="745" d="M66 1827l2 6h182l194 -297h-143zM109 0v182h163v1041h-163v182h528v-182h-164v-1041h164v-182h-528z" />
<glyph unicode="&#xcd;" horiz-adv-x="745" d="M109 0v182h163v1041h-163v182h528v-182h-164v-1041h164v-182h-528zM295 1536l192 297h185l2 -6l-238 -291h-141z" />
<glyph unicode="&#xce;" horiz-adv-x="745" d="M16 1536l279 297h160l276 -297h-164l-192 182l-195 -182h-164zM109 0v182h163v1041h-163v182h528v-182h-164v-1041h164v-182h-528z" />
<glyph unicode="&#xcf;" horiz-adv-x="745" d="M88 1536v201h184v-201h-184zM109 0v182h163v1041h-163v182h528v-182h-164v-1041h164v-182h-528zM473 1536v201h186v-201h-186z" />
<glyph unicode="&#xd0;" horiz-adv-x="1394" d="M10 635v133h191v637h487q176 0 307 -77t203 -219t72 -335v-143q0 -193 -72 -335t-203 -219t-307 -77h-487v635h-191zM401 182h287q182 0 281.5 114t99.5 335v143q0 217 -97.5 333t-283.5 116h-287v-455h297v-133h-297v-453z" />
<glyph unicode="&#xd1;" horiz-adv-x="1421" d="M188 0v1405h177l679 -1016l7 2v1014h182v-1405h-170l-686 1028l-6 -2v-1026h-183zM317 1536q0 86 61.5 149.5t166.5 63.5q47 0 86 -9t98 -28q117 -35 164 -35q90 0 113 72h102q0 -92 -63.5 -152.5t-165.5 -60.5q-70 0 -144 23q-18 4 -33.5 9t-29.5 9q-51 16 -79 22.5 t-61 6.5q-92 0 -112 -70h-103z" />
<glyph unicode="&#xd2;" horiz-adv-x="1413" d="M125 610v185q0 195 72.5 337t203.5 217.5t306 75.5q174 0 305 -75.5t203.5 -218t72.5 -336.5v-185q0 -195 -72.5 -337t-203.5 -217.5t-305 -75.5t-305.5 75.5t-204 218t-72.5 336.5zM326 610q0 -219 97 -333.5t284 -114.5q180 0 280 113.5t100 334.5v185q0 219 -97 333.5 t-283 114.5q-181 0 -281 -114.5t-100 -333.5v-185zM406 1827l2 6h182l194 -297h-143z" />
<glyph unicode="&#xd3;" horiz-adv-x="1413" d="M125 610v185q0 195 72.5 337t203.5 217.5t306 75.5q174 0 305 -75.5t203.5 -218t72.5 -336.5v-185q0 -195 -72.5 -337t-203.5 -217.5t-305 -75.5t-305.5 75.5t-204 218t-72.5 336.5zM326 610q0 -219 97 -333.5t284 -114.5q180 0 280 113.5t100 334.5v185q0 219 -97 333.5 t-283 114.5q-181 0 -281 -114.5t-100 -333.5v-185zM627 1536l192 297h185l2 -6l-238 -291h-141z" />
<glyph unicode="&#xd4;" horiz-adv-x="1413" d="M125 610v185q0 195 72.5 337t203.5 217.5t306 75.5q174 0 305 -75.5t203.5 -218t72.5 -336.5v-185q0 -195 -72.5 -337t-203.5 -217.5t-305 -75.5t-305.5 75.5t-204 218t-72.5 336.5zM326 610q0 -219 97 -333.5t284 -114.5q180 0 280 113.5t100 334.5v185q0 219 -97 333.5 t-283 114.5q-181 0 -281 -114.5t-100 -333.5v-185zM344 1536l279 297h159l277 -297h-164l-193 182l-194 -182h-164z" />
<glyph unicode="&#xd5;" horiz-adv-x="1413" d="M125 610v185q0 195 72.5 337t203.5 217.5t306 75.5q174 0 305 -75.5t203.5 -218t72.5 -336.5v-185q0 -195 -72.5 -337t-203.5 -217.5t-305 -75.5t-305.5 75.5t-204 218t-72.5 336.5zM311 1536q0 88 61.5 150.5t166.5 62.5q39 0 72.5 -7t64.5 -16.5t45 -13.5 q104 -35 166 -35q90 0 112 72h103q0 -94 -63.5 -153.5t-166.5 -59.5q-70 0 -143 23q-18 4 -33.5 9t-29.5 9q-51 16 -79 22.5t-61 6.5q-92 0 -112 -70h-103zM326 610q0 -219 97 -333.5t284 -114.5q180 0 280 113.5t100 334.5v185q0 219 -97 333.5t-283 114.5 q-181 0 -281 -114.5t-100 -333.5v-185z" />
<glyph unicode="&#xd6;" horiz-adv-x="1413" d="M125 610v185q0 195 72.5 337t203.5 217.5t306 75.5q174 0 305 -75.5t203.5 -218t72.5 -336.5v-185q0 -195 -72.5 -337t-203.5 -217.5t-305 -75.5t-305.5 75.5t-204 218t-72.5 336.5zM326 610q0 -219 97 -333.5t284 -114.5q180 0 280 113.5t100 334.5v185q0 219 -97 333.5 t-283 114.5q-181 0 -281 -114.5t-100 -333.5v-185zM424 1536v201h184v-201h-184zM809 1536v201h186v-201h-186z" />
<glyph unicode="&#xd7;" d="M203 213l313 309l-313 312l112 120l316 -311l313 311l113 -120l-314 -312l314 -309l-113 -121l-313 307l-316 -307z" />
<glyph unicode="&#xd8;" horiz-adv-x="1413" d="M125 610v185q0 195 72.5 337t203.5 217.5t306 75.5q182 0 319 -84l121 203h131l-164 -272q174 -166 174 -477v-185q0 -195 -72.5 -337t-203.5 -217.5t-305 -75.5q-180 0 -318 81l-115 -194h-131l158 262q-176 170 -176 481zM326 610q0 -201 77 -309l527 881 q-92 61 -199 61q-211 0 -308 -113.5t-97 -334.5v-185zM485 221q90 -59 197 -59q209 0 307 113.5t98 334.5v185q0 190 -75 305z" />
<glyph unicode="&#xd9;" horiz-adv-x="1392" d="M176 449v956h201v-952q0 -131 91 -211t232 -80q145 0 230.5 80t85.5 211v952h201v-956q0 -139 -62.5 -246t-178.5 -165t-267 -58h-27q-152 0 -265.5 57t-177 163.5t-63.5 248.5zM406 1827l2 6h182l194 -297h-143z" />
<glyph unicode="&#xda;" horiz-adv-x="1392" d="M176 449v956h201v-952q0 -131 91 -211t232 -80q145 0 230.5 80t85.5 211v952h201v-956q0 -139 -62.5 -246t-178.5 -165t-267 -58h-27q-152 0 -265.5 57t-177 163.5t-63.5 248.5zM623 1536l192 297h184l2 -6l-237 -291h-141z" />
<glyph unicode="&#xdb;" horiz-adv-x="1392" d="M176 449v956h201v-952q0 -131 91 -211t232 -80q145 0 230.5 80t85.5 211v952h201v-956q0 -139 -62.5 -246t-178.5 -165t-267 -58h-27q-152 0 -265.5 57t-177 163.5t-63.5 248.5zM338 1536l278 297h160l277 -297h-164l-193 182l-194 -182h-164z" />
<glyph unicode="&#xdc;" horiz-adv-x="1392" d="M176 449v956h201v-952q0 -131 91 -211t232 -80q145 0 230.5 80t85.5 211v952h201v-956q0 -139 -62.5 -246t-178.5 -165t-267 -58h-27q-152 0 -265.5 57t-177 163.5t-63.5 248.5zM412 1536v201h184v-201h-184zM797 1536v201h186v-201h-186z" />
<glyph unicode="&#xdd;" horiz-adv-x="1171" d="M-10 1405h229l375 -653h8l371 653h207l-494 -862v-543h-201v543zM530 1536l193 297h184l2 -6l-237 -291h-142z" />
<glyph unicode="&#xde;" horiz-adv-x="1296" d="M188 0v1405h201v-254h406q119 0 215 -53.5t150 -146.5t54 -210t-54 -210t-150.5 -146t-214.5 -53h-406v-332h-201zM389 514h387q96 0 167 66.5t71 160.5q0 96 -71 162t-167 66h-387v-455z" />
<glyph unicode="&#xdf;" horiz-adv-x="1257" d="M94 893v154h119q2 133 63.5 234t167 155.5t234.5 54.5q125 0 223 -49t153.5 -135t55.5 -195q0 -102 -57.5 -189t-147.5 -122l4 -8q113 -43 180.5 -144.5t67.5 -238.5q0 -113 -61.5 -206t-166 -148.5t-229.5 -55.5h-170v154h150q82 0 146.5 39.5t101.5 105.5t37 139 q0 72 -39 134.5t-104.5 99.5t-141.5 37h-150v151h134q106 0 180 70.5t74 175.5q0 104 -67 167.5t-181 63.5q-117 0 -190.5 -78.5t-73.5 -207.5v-1186h-193v1028h-119z" />
<glyph unicode="&#xe0;" horiz-adv-x="1198" d="M98 291q0 127 65.5 199.5t217 105.5t418.5 33v96q0 104 -61.5 146t-178.5 42q-111 0 -172 -43t-61 -120v-25h-189q-4 29 -4 68q0 72 57.5 135t155.5 101t217 38h19q206 0 307.5 -82t101.5 -237v-543q0 -37 16.5 -54.5t41.5 -17.5q47 0 94 29v-142q-70 -41 -158 -40 q-88 0 -131 50t-47 138q-127 -188 -367 -188q-172 0 -257 74.5t-85 236.5zM264 1468l2 7h183l194 -297h-143zM291 274q0 -141 215 -141q76 0 143.5 38t108.5 107.5t41 159.5v41q-215 0 -324.5 -21.5t-146.5 -64.5t-37 -119z" />
<glyph unicode="&#xe1;" horiz-adv-x="1198" d="M98 291q0 127 65.5 199.5t217 105.5t418.5 33v96q0 104 -61.5 146t-178.5 42q-111 0 -172 -43t-61 -120v-25h-189q-4 29 -4 68q0 72 57.5 135t155.5 101t217 38h19q206 0 307.5 -82t101.5 -237v-543q0 -37 16.5 -54.5t41.5 -17.5q47 0 94 29v-142q-70 -41 -158 -40 q-88 0 -131 50t-47 138q-127 -188 -367 -188q-172 0 -257 74.5t-85 236.5zM291 274q0 -141 215 -141q76 0 143.5 38t108.5 107.5t41 159.5v41q-215 0 -324.5 -21.5t-146.5 -64.5t-37 -119zM504 1178l192 297h185l2 -7l-238 -290h-141z" />
<glyph unicode="&#xe2;" horiz-adv-x="1198" d="M98 291q0 127 65.5 199.5t217 105.5t418.5 33v96q0 104 -61.5 146t-178.5 42q-111 0 -172 -43t-61 -120v-25h-189q-4 29 -4 68q0 72 57.5 135t155.5 101t217 38h19q206 0 307.5 -82t101.5 -237v-543q0 -37 16.5 -54.5t41.5 -17.5q47 0 94 29v-142q-70 -41 -158 -40 q-88 0 -131 50t-47 138q-127 -188 -367 -188q-172 0 -257 74.5t-85 236.5zM211 1178l278 297h160l277 -297h-164l-193 182l-194 -182h-164zM291 274q0 -141 215 -141q76 0 143.5 38t108.5 107.5t41 159.5v41q-215 0 -324.5 -21.5t-146.5 -64.5t-37 -119z" />
<glyph unicode="&#xe3;" horiz-adv-x="1198" d="M98 291q0 127 65.5 199.5t217 105.5t418.5 33v96q0 104 -61.5 146t-178.5 42q-111 0 -172 -43t-61 -120v-25h-189q-4 29 -4 68q0 72 57.5 135t155.5 101t217 38h19q206 0 307.5 -82t101.5 -237v-543q0 -37 16.5 -54.5t41.5 -17.5q47 0 94 29v-142q-70 -41 -158 -40 q-88 0 -131 50t-47 138q-127 -188 -367 -188q-172 0 -257 74.5t-85 236.5zM174 1262q0 86 61.5 149.5t165.5 63.5q47 0 86 -9.5t99 -27.5q117 -35 164 -35q90 0 112 72h103q0 -93 -63.5 -153t-166.5 -60q-70 0 -143 22q-18 4 -33.5 9t-30.5 10q-51 16 -78.5 22t-60.5 6 q-92 0 -113 -69h-102zM291 274q0 -141 215 -141q76 0 143.5 38t108.5 107.5t41 159.5v41q-215 0 -324.5 -21.5t-146.5 -64.5t-37 -119z" />
<glyph unicode="&#xe4;" horiz-adv-x="1198" d="M98 291q0 127 65.5 199.5t217 105.5t418.5 33v96q0 104 -61.5 146t-178.5 42q-111 0 -172 -43t-61 -120v-25h-189q-4 29 -4 68q0 72 57.5 135t155.5 101t217 38h19q206 0 307.5 -82t101.5 -237v-543q0 -37 16.5 -54.5t41.5 -17.5q47 0 94 29v-142q-70 -41 -158 -40 q-88 0 -131 50t-47 138q-127 -188 -367 -188q-172 0 -257 74.5t-85 236.5zM279 1274v201h184v-201h-184zM291 274q0 -141 215 -141q76 0 143.5 38t108.5 107.5t41 159.5v41q-215 0 -324.5 -21.5t-146.5 -64.5t-37 -119zM664 1274v201h186v-201h-186z" />
<glyph unicode="&#xe5;" horiz-adv-x="1198" d="M98 291q0 127 65.5 199.5t217 105.5t418.5 33v96q0 104 -61.5 146t-178.5 42q-111 0 -172 -43t-61 -120v-25h-189q-4 29 -4 68q0 72 57.5 135t155.5 101t217 38h19q206 0 307.5 -82t101.5 -237v-543q0 -37 16.5 -54.5t41.5 -17.5q47 0 94 29v-142q-70 -41 -158 -40 q-88 0 -131 50t-47 138q-127 -188 -367 -188q-172 0 -257 74.5t-85 236.5zM291 274q0 -141 215 -141q76 0 143.5 38t108.5 107.5t41 159.5v41q-215 0 -324.5 -21.5t-146.5 -64.5t-37 -119zM360 1343q0 86 60.5 146.5t146.5 60.5q82 0 144.5 -59t62.5 -148q0 -84 -60.5 -144 t-146.5 -60q-84 0 -145.5 58t-61.5 146zM453 1343q0 -47 32.5 -77.5t81.5 -30.5q47 0 81 31.5t34 79.5q0 45 -34 76.5t-81 31.5t-80.5 -31.5t-33.5 -79.5z" />
<glyph unicode="&#xe6;" horiz-adv-x="1832" d="M98 291q0 127 65.5 199.5t217 105.5t418.5 33v96q0 104 -61.5 146t-178.5 42q-111 0 -172 -43t-61 -120v-25h-189q-4 29 -4 68q0 72 57.5 135t155.5 101t217 38h19q260 0 354 -131q123 131 334 131h14q127 0 227.5 -53t155.5 -153.5t55 -235.5v-146h-731q4 -166 78 -256 t219 -90q129 0 190.5 76t61.5 180h182q0 -121 -55 -214t-154.5 -144t-228.5 -51h-8q-137 0 -242.5 58t-167.5 169q-68 -109 -183.5 -168t-242.5 -59q-172 0 -257 74.5t-85 236.5zM291 274q0 -141 215 -141q76 0 143.5 38t108.5 107.5t41 159.5v41q-215 0 -324.5 -21.5 t-146.5 -64.5t-37 -119zM995 629h537v24q0 117 -70.5 188.5t-187.5 71.5t-189.5 -71.5t-89.5 -212.5z" />
<glyph unicode="&#xe7;" horiz-adv-x="1114" d="M104 498v49q0 156 57.5 273.5t162 182t239.5 64.5h17q125 0 224 -54.5t154.5 -152.5t55.5 -225h-191q0 127 -64.5 202.5t-185.5 75.5q-127 0 -201.5 -85t-74.5 -232v-111q0 -178 73.5 -265t209.5 -87q125 0 187 75t62 202h185q0 -197 -118 -313.5t-314 -116.5h-17 q-139 0 -243.5 64.5t-161 181t-56.5 272.5zM367 -358l18 100q86 -41 147 -41q137 0 138 92q0 39 -31 61.5t-76 22.5h-43v88h49q228 0 228 -182q0 -84 -64.5 -135t-150.5 -51q-133 0 -215 45z" />
<glyph unicode="&#xe8;" horiz-adv-x="1138" d="M104 502v41q0 156 57.5 274.5t164 184t249.5 65.5h15q129 0 228.5 -54.5t154.5 -154.5t55 -233v-146h-731q4 -166 78 -256t219 -90q129 0 190.5 76t61.5 180h182q0 -123 -56.5 -215t-155.5 -143t-226 -51h-8q-221 0 -349.5 142t-128.5 380zM276 1468l3 7h182l194 -297 h-143zM301 629h537v24q0 117 -71 188.5t-187 71.5q-117 0 -190 -71.5t-89 -212.5z" />
<glyph unicode="&#xe9;" horiz-adv-x="1138" d="M104 502v41q0 156 57.5 274.5t164 184t249.5 65.5h15q129 0 228.5 -54.5t154.5 -154.5t55 -233v-146h-731q4 -166 78 -256t219 -90q129 0 190.5 76t61.5 180h182q0 -123 -56.5 -215t-155.5 -143t-226 -51h-8q-221 0 -349.5 142t-128.5 380zM301 629h537v24 q0 117 -71 188.5t-187 71.5q-117 0 -190 -71.5t-89 -212.5zM504 1178l192 297h185l2 -7l-238 -290h-141z" />
<glyph unicode="&#xea;" horiz-adv-x="1138" d="M104 502v41q0 156 57.5 274.5t164 184t249.5 65.5h15q129 0 228.5 -54.5t154.5 -154.5t55 -233v-146h-731q4 -166 78 -256t219 -90q129 0 190.5 76t61.5 180h182q0 -123 -56.5 -215t-155.5 -143t-226 -51h-8q-221 0 -349.5 142t-128.5 380zM221 1178l279 297h159 l277 -297h-164l-192 182l-195 -182h-164zM301 629h537v24q0 117 -71 188.5t-187 71.5q-117 0 -190 -71.5t-89 -212.5z" />
<glyph unicode="&#xeb;" horiz-adv-x="1138" d="M104 502v41q0 156 57.5 274.5t164 184t249.5 65.5h15q129 0 228.5 -54.5t154.5 -154.5t55 -233v-146h-731q4 -166 78 -256t219 -90q129 0 190.5 76t61.5 180h182q0 -123 -56.5 -215t-155.5 -143t-226 -51h-8q-221 0 -349.5 142t-128.5 380zM293 1274v201h184v-201h-184z M301 629h537v24q0 117 -71 188.5t-187 71.5q-117 0 -190 -71.5t-89 -212.5zM678 1274v201h186v-201h-186z" />
<glyph unicode="&#xec;" horiz-adv-x="532" d="M-18 1468l2 7h186l190 -297h-143zM170 0v1047h192v-1047h-192z" />
<glyph unicode="&#xed;" horiz-adv-x="532" d="M170 0v1047h192v-1047h-192zM174 1178l193 297h184l2 -7l-238 -290h-141z" />
<glyph unicode="&#xee;" horiz-adv-x="532" d="M-90 1178l278 297h160l277 -297h-164l-193 182l-194 -182h-164zM170 0v1047h192v-1047h-192z" />
<glyph unicode="&#xef;" horiz-adv-x="532" d="M-18 1274v201h188v-201h-188zM170 0v1047h192v-1047h-192zM367 1274v201h186v-201h-186z" />
<glyph unicode="&#xf0;" horiz-adv-x="1177" d="M106 485v76q0 236 131.5 371t350.5 135q33 0 65 -6q-70 84 -170 178l-186 -88l-74 68l193 90q-39 33 -129 90l-54 35l121 59q91 -45 195 -115l192 90l66 -69l-178 -82q440 -362 440 -756v-76q0 -236 -129 -370.5t-352 -134.5t-352.5 135t-129.5 370zM299 504 q0 -178 75 -274.5t214 -96.5q135 0 212 95.5t77 275.5v39q0 178 -75 274t-214 96q-137 0 -213 -94t-76 -276v-39z" />
<glyph unicode="&#xf1;" horiz-adv-x="1214" d="M170 0v1047h139l27 -154q131 174 350 174q172 0 270.5 -92t98.5 -270v-705h-193v670q0 244 -221 243q-74 0 -137.5 -38.5t-102.5 -105.5t-39 -146v-623h-192zM227 1262q0 86 61.5 149.5t166.5 63.5q47 0 86 -9.5t98 -27.5q117 -35 164 -35q90 0 112 72h103 q0 -93 -63.5 -153t-166.5 -60q-70 0 -143 22q-18 4 -33.5 9t-29.5 10q-51 16 -79 22t-61 6q-92 0 -112 -69h-103z" />
<glyph unicode="&#xf2;" horiz-adv-x="1175" d="M106 485v76q0 236 131.5 371t350.5 135t350 -135t131 -371v-76q0 -236 -129 -370.5t-352 -134.5t-352.5 135t-129.5 370zM283 1468l2 7h182l195 -297h-144zM299 504q0 -178 75 -274.5t214 -96.5q135 0 212 95.5t77 275.5v39q0 178 -75 274t-214 96q-137 0 -213 -94 t-76 -276v-39z" />
<glyph unicode="&#xf3;" horiz-adv-x="1175" d="M106 485v76q0 236 131.5 371t350.5 135t350 -135t131 -371v-76q0 -236 -129 -370.5t-352 -134.5t-352.5 135t-129.5 370zM299 504q0 -178 75 -274.5t214 -96.5q135 0 212 95.5t77 275.5v39q0 178 -75 274t-214 96q-137 0 -213 -94t-76 -276v-39zM522 1178l193 297h184 l2 -7l-237 -290h-142z" />
<glyph unicode="&#xf4;" horiz-adv-x="1175" d="M106 485v76q0 236 131.5 371t350.5 135t350 -135t131 -371v-76q0 -236 -129 -370.5t-352 -134.5t-352.5 135t-129.5 370zM227 1178l279 297h160l276 -297h-164l-192 182l-195 -182h-164zM299 504q0 -178 75 -274.5t214 -96.5q135 0 212 95.5t77 275.5v39q0 178 -75 274 t-214 96q-137 0 -213 -94t-76 -276v-39z" />
<glyph unicode="&#xf5;" horiz-adv-x="1175" d="M106 485v76q0 236 131.5 371t350.5 135t350 -135t131 -371v-76q0 -236 -129 -370.5t-352 -134.5t-352.5 135t-129.5 370zM193 1262q0 88 61 150.5t166 62.5q39 0 72.5 -7.5t64.5 -16.5t45 -13q104 -35 166 -35q90 0 113 72h102q0 -95 -63.5 -154t-165.5 -59 q-70 0 -144 22q-18 4 -33.5 9t-29.5 10q-51 16 -79 22t-60 6q-92 0 -113 -69h-102zM299 504q0 -178 75 -274.5t214 -96.5q135 0 212 95.5t77 275.5v39q0 178 -75 274t-214 96q-137 0 -213 -94t-76 -276v-39z" />
<glyph unicode="&#xf6;" horiz-adv-x="1175" d="M106 485v76q0 236 131.5 371t350.5 135t350 -135t131 -371v-76q0 -236 -129 -370.5t-352 -134.5t-352.5 135t-129.5 370zM299 504q0 -178 75 -274.5t214 -96.5q135 0 212 95.5t77 275.5v39q0 178 -75 274t-214 96q-137 0 -213 -94t-76 -276v-39zM301 1274v201h184v-201 h-184zM686 1274v201h186v-201h-186z" />
<glyph unicode="&#xf7;" d="M104 436v172h1049v-172h-1049zM545 104v185h170v-185h-170zM545 756v186h170v-186h-170z" />
<glyph unicode="&#xf8;" horiz-adv-x="1175" d="M106 485v76q0 236 131.5 371t350.5 135q135 0 243 -55l95 151h121l-132 -209q154 -135 154 -393v-76q0 -236 -129 -370.5t-352 -134.5q-137 0 -246 55l-92 -148h-121l129 205q-152 135 -152 393zM299 504q0 -154 59 -250l385 616q-68 43 -141 43q-149 0 -226 -95 t-77 -275v-39zM430 176q66 -43 141 -43q154 0 230 95.5t76 275.5v39q0 158 -62 252z" />
<glyph unicode="&#xf9;" horiz-adv-x="1265" d="M160 342v705h192v-670q0 -244 221 -244q72 0 136.5 39t103.5 105.5t39 146.5v623h192v-842q0 -37 16.5 -54.5t41.5 -17.5q45 0 92 29v-142q-63 -41 -129 -40q-111 0 -155 45t-48 127q-55 -82 -142 -127t-200 -45q-158 0 -259 93t-101 269zM313 1468l2 7h183l194 -297 h-143z" />
<glyph unicode="&#xfa;" horiz-adv-x="1265" d="M160 342v705h192v-670q0 -244 221 -244q72 0 136.5 39t103.5 105.5t39 146.5v623h192v-842q0 -37 16.5 -54.5t41.5 -17.5q45 0 92 29v-142q-63 -41 -129 -40q-111 0 -155 45t-48 127q-55 -82 -142 -127t-200 -45q-158 0 -259 93t-101 269zM530 1178l193 297h184l2 -7 l-237 -290h-142z" />
<glyph unicode="&#xfb;" horiz-adv-x="1265" d="M160 342v705h192v-670q0 -244 221 -244q72 0 136.5 39t103.5 105.5t39 146.5v623h192v-842q0 -37 16.5 -54.5t41.5 -17.5q45 0 92 29v-142q-63 -41 -129 -40q-111 0 -155 45t-48 127q-55 -82 -142 -127t-200 -45q-158 0 -259 93t-101 269zM240 1178l278 297h160l276 -297 h-163l-193 182l-195 -182h-163z" />
<glyph unicode="&#xfc;" horiz-adv-x="1265" d="M160 342v705h192v-670q0 -244 221 -244q72 0 136.5 39t103.5 105.5t39 146.5v623h192v-842q0 -37 16.5 -54.5t41.5 -17.5q45 0 92 29v-142q-63 -41 -129 -40q-111 0 -155 45t-48 127q-55 -82 -142 -127t-200 -45q-158 0 -259 93t-101 269zM317 1274v201h185v-201h-185z M702 1274v201h187v-201h-187z" />
<glyph unicode="&#xfd;" horiz-adv-x="1048" d="M25 1047h204l301 -773h9l297 773h188l-391 -1006q-70 -172 -129.5 -263t-120.5 -125t-143 -34q-76 0 -144 29v157q68 -29 103 -28q84 0 140 56t93 177zM455 1178l192 297h184l3 -7l-238 -290h-141z" />
<glyph unicode="&#xfe;" horiz-adv-x="1193" d="M170 -371v1846h192v-543q111 135 302 135q199 0 311 -145.5t112 -399.5v-22q0 -242 -111.5 -381t-311.5 -139q-193 0 -302 153v-504h-192zM360 524q0 -201 67 -296t202 -95t200.5 96.5t65.5 294.5q0 201 -66.5 295t-199.5 94q-140 0 -204.5 -96t-64.5 -293z" />
<glyph unicode="&#xff;" horiz-adv-x="1048" d="M25 1047h204l301 -773h9l297 773h188l-391 -1006q-70 -172 -129.5 -263t-120.5 -125t-143 -34q-76 0 -144 29v157q68 -29 103 -28q84 0 140 56t93 177zM246 1274v201h184v-201h-184zM631 1274v201h186v-201h-186z" />
<glyph unicode="&#x152;" horiz-adv-x="2113" d="M125 610v185q0 195 72.5 337t201.5 217.5t297 75.5q239 0 391 -139v119h922l-27 -182h-694v-414h629v-182h-629v-445h707l28 -182h-936v119q-145 -139 -380 -139q-174 0 -305.5 75.5t-204 218t-72.5 336.5zM326 610q0 -219 97 -333.5t284 -114.5q180 0 280 113.5 t100 334.5v185q0 219 -97 333.5t-283 114.5q-181 0 -281 -114.5t-100 -333.5v-185z" />
<glyph unicode="&#x153;" horiz-adv-x="1910" d="M106 485v76q0 236 131.5 371t350.5 135q262 0 387 -178q133 178 373 178h14q127 0 227.5 -53t155.5 -153.5t55 -235.5v-146h-731q4 -166 78 -256t219 -90q129 0 190.5 76t61.5 180h182q0 -121 -55 -214t-154.5 -144t-228.5 -51h-8q-246 0 -379 178q-125 -178 -387 -178 q-223 0 -352.5 135t-129.5 370zM299 504q0 -178 75 -274.5t214 -96.5q135 0 212 95.5t77 275.5v39q0 178 -75 274t-214 96q-137 0 -213 -94t-76 -276v-39zM1073 629h537v24q0 117 -71 188.5t-187 71.5q-117 0 -189.5 -71.5t-89.5 -212.5z" />
<glyph unicode="&#x178;" horiz-adv-x="1171" d="M-10 1405h229l375 -653h8l371 653h207l-494 -862v-543h-201v543zM324 1534v201h184v-201h-184zM709 1534v201h186v-201h-186z" />
<glyph unicode="&#x2c6;" horiz-adv-x="1097" d="M188 1178l279 297h160l276 -297h-164l-192 182l-195 -182h-164z" />
<glyph unicode="&#x2dc;" horiz-adv-x="745" d="M-2 1255q0 86 61.5 149.5t165.5 63.5q45 0 82 -8t103 -26q115 -37 163 -37q90 0 113 71h102q0 -92 -63 -152.5t-166 -60.5q-70 0 -143 23q-18 4 -33.5 9t-30.5 9q-51 16 -78.5 22.5t-60.5 6.5q-92 0 -113 -70h-102z" />
<glyph unicode="&#x2000;" horiz-adv-x="948" />
<glyph unicode="&#x2001;" horiz-adv-x="1896" />
<glyph unicode="&#x2002;" horiz-adv-x="948" />
<glyph unicode="&#x2003;" horiz-adv-x="1896" />
<glyph unicode="&#x2004;" horiz-adv-x="632" />
<glyph unicode="&#x2005;" horiz-adv-x="474" />
<glyph unicode="&#x2006;" horiz-adv-x="316" />
<glyph unicode="&#x2007;" horiz-adv-x="316" />
<glyph unicode="&#x2008;" horiz-adv-x="237" />
<glyph unicode="&#x2009;" horiz-adv-x="379" />
<glyph unicode="&#x200a;" horiz-adv-x="105" />
<glyph unicode="&#x2010;" horiz-adv-x="800" d="M141 453v200h518v-200h-518z" />
<glyph unicode="&#x2011;" horiz-adv-x="800" d="M141 453v200h518v-200h-518z" />
<glyph unicode="&#x2012;" horiz-adv-x="800" d="M141 453v200h518v-200h-518z" />
<glyph unicode="&#x2013;" horiz-adv-x="1306" d="M141 457v194h1024v-194h-1024z" />
<glyph unicode="&#x2014;" horiz-adv-x="2166" d="M147 457v192h1864v-192h-1864z" />
<glyph unicode="&#x2018;" horiz-adv-x="458" d="M125 924v174l72 307h106l-55 -254h84v-227h-207z" />
<glyph unicode="&#x2019;" horiz-adv-x="448" d="M125 1178v227h207v-174l-72 -307h-106l55 254h-84z" />
<glyph unicode="&#x201a;" horiz-adv-x="487" d="M141 0v227h207v-174l-72 -307h-106l55 254h-84z" />
<glyph unicode="&#x201c;" horiz-adv-x="749" d="M125 924v174l72 307h106l-55 -254h84v-227h-207zM416 924v174l71 307h107l-55 -254h84v-227h-207z" />
<glyph unicode="&#x201d;" horiz-adv-x="739" d="M125 1178v227h207v-174l-72 -307h-106l55 254h-84zM416 1178v227h207v-174l-72 -307h-107l56 254h-84z" />
<glyph unicode="&#x201e;" horiz-adv-x="778" d="M141 0v227h207v-174l-72 -307h-106l55 254h-84zM432 0v227h207v-174l-72 -307h-106l55 254h-84z" />
<glyph unicode="&#x2022;" horiz-adv-x="1228" d="M307 705q0 86 42 156.5t111.5 112.5t151.5 42t153 -42t114 -114t43 -155q0 -88 -43 -160t-114 -113t-153 -41t-152.5 43t-111.5 115t-41 156z" />
<glyph unicode="&#x2026;" horiz-adv-x="1505" d="M141 0v227h209v-227h-209zM649 0v227h209v-227h-209zM1155 0v227h209v-227h-209z" />
<glyph unicode="&#x202f;" horiz-adv-x="379" />
<glyph unicode="&#x2039;" horiz-adv-x="569" d="M100 690l250 357h105l-193 -357l193 -356h-105z" />
<glyph unicode="&#x203a;" horiz-adv-x="569" d="M115 334l192 356l-192 357h104l250 -357l-250 -356h-104z" />
<glyph unicode="&#x205f;" horiz-adv-x="474" />
<glyph unicode="&#x20ac;" horiz-adv-x="1150" d="M61 487v134h185q-2 12 -2 38v78q0 23 2 35h-185v131h203q51 233 220 374.5t411 141.5q65 0 180 -16v-186q-68 20 -162 20q-164 0 -282.5 -90t-163.5 -244h405v-131h-430q-4 -20 -4 -35v-78q0 -14 4 -38h430v-134h-401q49 -152 170 -237.5t287 -85.5q61 0 147 26v-186 q-84 -20 -194 -20q-152 0 -280 63.5t-215 178t-120 261.5h-205z" />
<glyph unicode="&#x2122;" horiz-adv-x="1837" d="M94 1282v123h643v-123h-254v-692h-133v692h-256zM786 590v815h203l55 -137q127 -319 193 -480l252 617h201v-815h-134v323q0 104 -4 322l-262 -645h-127l-129 319q-20 53 -52 133t-77 187v-639h-119z" />
<glyph unicode="&#x25fc;" horiz-adv-x="1044" d="M0 0v1044h1044v-1044h-1044z" />
</font>
</defs>
</svg>
