<?xml version="1.0" encoding="utf-8"?>
<!-- Generator: Adobe Illustrator 15.0.0, SVG Export Plug-In  -->
<!DOCTYPE svg PUBLIC "-//W3C//DTD SVG 1.1//EN" "http://www.w3.org/Graphics/SVG/1.1/DTD/svg11.dtd" [
	<!ENTITY ns_flows "http://ns.adobe.com/Flows/1.0/">
]>
<svg version="1.1"
	 xmlns="http://www.w3.org/2000/svg" xmlns:xlink="http://www.w3.org/1999/xlink" xmlns:a="http://ns.adobe.com/AdobeSVGViewerExtensions/3.0/"
	 x="0px" y="0px" width="170px" height="90px" viewBox="-1.956 -18.082 170 90"
	 overflow="visible" enable-background="new -1.956 -18.082 170 90" xml:space="preserve">
<defs>
</defs>
<path fill-rule="evenodd" clip-rule="evenodd" fill="#1D1D1B" d="M123.365,47.637c0-3.693-1.941-5.459-5.46-5.459h-3.899v11.465
	h3.899C121.71,53.643,123.365,51.477,123.365,47.637 M121.869,47.846c0,4.225-2.801,4.514-3.836,4.514h-2.531v-8.898h2.562
	C120.866,43.461,121.869,45.116,121.869,47.846 M130.385,41.936h-1.735l-1.368,2.297h1.019L130.385,41.936z M125.944,49.901h6.16
	c0-2.215-0.908-4.752-3.709-4.752c-2.244,0-3.852,1.83-3.852,4.32c0.079,2.537,1.305,4.367,3.932,4.367
	c1.861,0,3.151-0.996,3.501-2.826h-1.305c-0.239,1.076-1.035,1.623-2.149,1.623C126.771,52.633,125.944,51.411,125.944,49.901
	 M130.703,48.698h-4.759c0.095-1.27,0.955-2.346,2.371-2.346C129.652,46.352,130.64,47.397,130.703,48.698 M133.091,49.596
	c0,2.475,1.321,4.24,3.836,4.24c2.069,0,3.326-1.203,3.629-3.227h-1.385c-0.175,1.252-0.955,2.023-2.26,2.023
	c-1.735,0-2.419-1.512-2.419-3.037c0-1.686,0.604-3.244,2.578-3.244c1.114,0,1.831,0.611,2.037,1.656h1.401
	c-0.191-1.977-1.688-2.859-3.55-2.859C134.349,45.149,133.091,47.108,133.091,49.596 M149.629,49.5c0-2.441-1.354-4.352-3.995-4.352
	c-2.626,0-3.995,1.91-3.995,4.352c0,2.426,1.369,4.336,3.995,4.336C148.275,53.836,149.629,51.926,149.629,49.5 M148.229,49.5
	c0,2.008-1.162,3.133-2.595,3.133s-2.595-1.125-2.595-3.133c0-2.023,1.162-3.148,2.595-3.148S148.229,47.477,148.229,49.5"/>
<path fill="#1D1D1B" d="M165.929,20.758c-0.206-0.057-0.32-0.085-0.365-0.085c-0.502,0-1.391,0.681-2.645,1.985
	c-1.253,1.305-2.644,3.062-4.17,5.274l-0.183,0.283c-3.1,4.424-4.878,6.637-5.356,6.637c-0.183,0-0.342-0.057-0.433-0.227
	c-0.092-0.172-0.137-0.398-0.137-0.709c0-0.568,0.091-1.561,0.296-2.922s0.479-2.808,0.82-4.396
	c0.365-1.758,0.752-3.147,1.208-4.168s0.98-1.787,1.596-2.269c-0.046,0.17-0.092,0.34-0.114,0.482
	c-0.022,0.17-0.022,0.283-0.022,0.369c0,0.595,0.16,1.078,0.501,1.446c0.319,0.369,0.775,0.539,1.322,0.539
	c0.502,0,0.934-0.199,1.254-0.624c0.318-0.397,0.479-0.964,0.479-1.646c0-0.68-0.206-1.219-0.593-1.672
	c-0.41-0.426-0.912-0.653-1.526-0.653c-0.936,0-1.756,0.539-2.462,1.56c-0.707,1.021-1.504,2.921-2.371,5.7
	c0.046-0.511,0.068-0.936,0.091-1.277c0.023-0.312,0.046-0.51,0.046-0.623c0-1.617-0.205-2.893-0.592-3.8
	c-0.411-0.907-0.935-1.39-1.619-1.39c-0.501,0-1.14,0.397-1.937,1.191c-0.798,0.794-1.938,2.184-3.42,4.168
	c-0.067,0.085-0.158,0.199-0.25,0.312c-0.062,0.087-0.118,0.168-0.17,0.246c-0.746,0.846-1.586,1.833-2.52,2.959
	c-1.299,1.531-2.325,2.751-3.054,3.63c-1.209,1.418-2.143,2.438-2.804,3.006c-0.684,0.596-1.208,0.879-1.618,0.879
	c-0.137,0-0.251-0.029-0.319-0.113c-0.091-0.057-0.113-0.17-0.113-0.285c0-0.227,0.091-0.65,0.296-1.219
	c0.204-0.566,0.569-1.445,1.071-2.58l5.492-12.364l-5.584,0.425c-2.507,4.821-4.741,8.706-6.701,11.599
	c-1.96,2.92-3.259,4.367-3.942,4.367c-0.137,0-0.274-0.057-0.365-0.199c-0.114-0.143-0.159-0.283-0.159-0.453
	s0.159-0.652,0.501-1.504c0.342-0.822,0.821-1.898,1.459-3.26l5.128-10.976l-5.037,0.425c-0.569,0.738-1.025,1.333-1.345,1.759
	c-0.342,0.425-0.661,0.822-0.979,1.191l-1.369,1.623c-0.465,0.509-0.986,1.101-1.567,1.777c-0.06,0.068-0.115,0.133-0.167,0.196
	c-0.656,0.769-1.383,1.64-2.185,2.614c-0.388,0.511-0.935,1.162-1.618,2.014c-2.78,3.432-4.376,5.133-4.81,5.133
	c-0.159,0-0.296-0.057-0.387-0.199c-0.092-0.141-0.137-0.34-0.137-0.566c0-0.113,0.114-0.539,0.364-1.219
	c0.229-0.682,0.547-1.504,0.957-2.496l4.786-12.251l-4.558,0.425l-1.117,2.779c-0.183-1.049-0.57-1.843-1.162-2.382
	c-0.593-0.539-1.391-0.823-2.394-0.823c-1.049,0-2.188,0.369-3.419,1.049c-0.648,0.352-1.314,0.796-2,1.326
	c-0.553,0.265-1.396,1.025-2.531,2.279c-0.296,0.312-0.573,0.627-0.829,0.945c-0.204,0.238-0.415,0.489-0.634,0.753
	c-1.368,1.645-2.462,2.921-3.282,3.829c-1.596,1.758-3.055,3.205-4.376,4.311c-1.322,1.105-2.439,1.844-3.373,2.24l7.407-16.731
	l-4.604,0.482l-1.276,2.722c-0.159-1.049-0.547-1.843-1.139-2.382c-0.593-0.539-1.391-0.823-2.394-0.823
	c-1.049,0-2.165,0.341-3.396,1.021s-2.53,1.645-3.853,2.92c-0.703,0.701-1.319,1.401-1.845,2.099
	c-0.826,0.952-1.791,2.114-2.895,3.488l-0.593,0.709c-3.578,4.338-5.652,6.494-6.222,6.494c-0.137,0-0.229-0.029-0.319-0.113
	c-0.091-0.057-0.114-0.17-0.114-0.283c0-0.512,0.524-1.645,1.573-3.432c0.159-0.283,0.296-0.482,0.387-0.652
	c0.182-0.283,0.433-0.738,0.798-1.334c1.801-3.062,2.712-5.019,2.712-5.926c0-0.908-0.319-1.616-0.934-2.098
	c-0.638-0.482-1.687-0.823-3.168-1.021c-1.14-0.142-1.824-0.312-2.074-0.51c-0.251-0.17-0.365-0.51-0.365-0.992
	c0-0.142,0-0.284,0.023-0.454c0-0.142,0.022-0.227,0.022-0.255c0-0.312-0.045-0.539-0.137-0.709
	c-0.091-0.142-0.25-0.227-0.433-0.227c-0.319,0-0.752,1.332-1.299,3.941l-0.046,0.227l-1.641,1.985
	c-0.25,0.312-0.57,0.709-0.957,1.191c-0.38,0.46-0.672,0.835-0.876,1.124c-0.606,0.713-1.271,1.51-1.996,2.392
	c-0.387,0.511-0.934,1.162-1.618,2.014c-2.781,3.432-4.376,5.133-4.81,5.133c-0.16,0-0.296-0.057-0.388-0.199
	c-0.091-0.141-0.136-0.34-0.136-0.566c0-0.113,0.114-0.539,0.364-1.219c0.228-0.682,0.547-1.504,0.958-2.496l4.786-12.251
	l-4.558,0.425l-1.117,2.779c-0.183-1.049-0.57-1.843-1.163-2.382c-0.592-0.539-1.39-0.823-2.393-0.823
	c-1.048,0-2.188,0.369-3.419,1.049c-0.644,0.35-1.306,0.79-1.986,1.315c-0.465,0.21-1.126,0.769-2.003,1.663
	c-1.14,1.19-2.781,3.062-4.878,5.671c-2.188,2.723-3.714,4.566-4.558,5.473c-0.866,0.936-1.414,1.391-1.687,1.391
	c-0.113,0-0.228-0.057-0.319-0.199c-0.091-0.141-0.137-0.312-0.137-0.51c0-1.051,0.273-2.75,0.843-5.105
	c0.57-2.353,1.459-5.529,2.689-9.527c1.322-4.225,2.735-8.422,4.239-12.591c1.505-4.168,2.256-6.353,2.256-6.522
	c0-0.114-0.068-0.227-0.159-0.34C39.818,0.057,39.681,0,39.522,0c-1.14,0-3.806,3.403-7.955,10.18
	c-4.148,6.778-8.228,14.888-12.24,24.33c0.114-1.531,0.661-3.912,1.618-7.202c0.958-3.29,2.712-8.678,5.288-16.221
	c0.228-0.681,0.547-1.673,0.98-2.921c1.481-4.338,2.233-6.834,2.233-7.515c0-0.17-0.068-0.34-0.159-0.454
	C29.174,0.085,29.038,0,28.878,0c-0.684,0-2.143,1.645-4.331,4.877c-2.188,3.233-4.786,7.6-7.749,13.073
	c-0.912,1.645-2.074,3.914-3.533,6.75c-3.784,7.43-6.77,11.145-8.935,11.145c-0.752,0-1.414-0.227-1.983-0.738
	c-0.57-0.51-0.866-1.02-0.866-1.588c0-0.623,0.183-1.105,0.547-1.502c0.342-0.396,0.889-0.682,1.642-0.879
	c0.98-0.256,1.641-0.596,1.982-1.021c0.319-0.396,0.501-0.992,0.501-1.787c0-0.85-0.205-1.502-0.57-1.956
	c-0.388-0.454-0.934-0.708-1.664-0.708c-1.071,0-1.983,0.567-2.758,1.701C0.388,28.5,0,29.889,0,31.477
	c0,1.531,0.433,2.779,1.254,3.744c0.843,0.992,1.891,1.473,3.213,1.473c2.553,0,5.584-3.459,9.094-10.435
	c0.319-0.595,0.546-1.05,0.707-1.39c3.191-6.295,5.994-11.513,8.433-15.625c2.439-4.084,4.262-6.693,5.493-7.799l-1.687,3.29
	C19.374,18.745,15.818,27.563,15.818,31.25c0,1.588,0.205,2.893,0.661,3.855c0.456,0.994,1.026,1.477,1.755,1.477
	c0.775,0,1.846-1.646,3.237-4.936c1.367-3.261,2.644-6.068,3.829-8.422c2.963-5.898,5.584-10.663,7.886-14.35
	c2.279-3.658,4.239-6.181,5.881-7.599c-1.003,1.872-2.348,4.311-3.989,7.344c-2.211,4.055-3.601,6.636-4.148,7.771
	c-1.778,3.629-3.032,6.579-3.761,8.875c-0.729,2.297-1.094,4.339-1.094,6.097c0,1.588,0.296,2.893,0.889,3.857
	c0.593,0.992,1.345,1.473,2.303,1.473c1.276,0,3.532-2.012,6.769-6.096l0.091-0.113c0.477-0.594,1.125-1.422,1.958-2.506
	c-0.353,1.105-0.522,2.264-0.522,3.498c0,1.559,0.365,2.807,1.14,3.744c0.752,0.963,1.732,1.416,2.963,1.416
	c1.14,0,2.325-0.537,3.556-1.672c1.231-1.105,2.439-2.752,3.647-4.936c-0.228,0.568-0.388,1.107-0.479,1.617
	c-0.091,0.539-0.137,1.105-0.137,1.701c0,1.021,0.25,1.814,0.774,2.439c0.502,0.594,1.186,0.906,2.029,0.906
	c1.595,0,3.852-1.842,6.792-5.557c0.592-0.738,1.048-1.334,1.367-1.758c0.433-0.512,1.048-1.277,1.823-2.241
	c0.224-0.28,0.441-0.551,0.654-0.813c0.226-0.229,0.508-0.562,0.85-1.001c0.226-0.281,0.431-0.536,0.616-0.766
	c0.965-1.132,1.782-2.019,2.451-2.666h0.535c0.183,0,0.433,0.028,0.73,0.057h0.159c0.228,0,0.525,0,0.935-0.057
	c0.41-0.028,1.025-0.113,1.892-0.227c-1.732,1.276-3.191,2.978-4.33,5.076c-1.163,2.126-1.732,4.054-1.732,5.785
	c0,1.277,0.273,2.27,0.82,3.006c0.547,0.738,1.299,1.105,2.257,1.105c1.481,0,4.125-2.381,7.954-7.201l0.319-0.398
	c0.142-0.188,0.313-0.41,0.511-0.666c-0.279,0.98-0.42,1.998-0.42,3.049c0,1.559,0.365,2.807,1.117,3.771
	c0.752,0.965,1.732,1.445,2.94,1.445c1.14,0,2.257-0.48,3.397-1.502s2.439-2.723,3.897-5.105l-3.191,7.09
	c-4.513,1.816-7.886,3.771-10.074,5.814c-2.188,2.041-3.305,4.225-3.305,6.549c0,1.221,0.411,2.24,1.208,3.064
	c0.821,0.793,1.846,1.219,3.122,1.219c2.234,0,4.445-1.391,6.633-4.141c2.188-2.75,4.536-7.117,7.043-13.102
	c3.168-1.303,6.473-4.055,9.892-8.251c0.137-0.167,0.271-0.331,0.404-0.492c-0.397,1.166-0.587,2.389-0.587,3.696
	c0,1.559,0.364,2.807,1.14,3.744c0.752,0.963,1.732,1.416,2.963,1.416c1.14,0,2.324-0.537,3.556-1.672
	c1.23-1.105,2.439-2.752,3.646-4.936c-0.228,0.568-0.388,1.107-0.479,1.617c-0.091,0.539-0.137,1.105-0.137,1.701
	c0,1.021,0.251,1.814,0.775,2.439c0.501,0.594,1.185,0.906,2.028,0.906c1.595,0,3.852-1.842,6.792-5.557
	c0.593-0.738,1.049-1.334,1.367-1.758c0.434-0.512,1.049-1.277,1.824-2.241c0.281-0.353,0.553-0.691,0.817-1.016
	c0.312-0.339,0.716-0.822,1.211-1.451c0.019-0.025,0.038-0.049,0.057-0.073c0.507-0.595,0.973-1.123,1.397-1.584
	c-1.391,2.743-2.347,4.818-2.867,6.223c-0.548,1.475-0.798,2.666-0.798,3.629c0,1.135,0.25,2.043,0.774,2.723
	c0.502,0.682,1.209,0.994,2.074,0.994c1.095,0,2.211-0.598,3.351-1.844c1.14-1.248,3.1-4.227,5.857-8.961
	c-0.911,2.241-1.504,3.829-1.777,4.735c-0.273,0.908-0.388,1.701-0.388,2.354c0,1.135,0.273,2.043,0.82,2.723
	c0.548,0.682,1.3,0.994,2.233,0.994c1.619,0,4.081-2.016,7.386-6.07l0.113-0.141c0.616-0.738,1.482-1.816,2.576-3.205
	c1.486-1.897,2.735-3.388,3.749-4.477c0.426-0.415,0.75-0.628,0.969-0.628c0.137,0,0.273,0.114,0.387,0.284
	c0.115,0.199,0.183,0.426,0.183,0.709c0,1.844-0.41,3.857-1.207,6.069c-0.821,2.211-1.801,3.885-2.964,5.02
	c-0.114-0.766-0.342-1.334-0.661-1.701c-0.318-0.369-0.752-0.568-1.299-0.568s-0.957,0.229-1.276,0.682s-0.479,1.078-0.479,1.814
	c0,0.709,0.183,1.275,0.501,1.701c0.343,0.396,0.799,0.623,1.345,0.623c1.049,0,2.006-0.566,2.872-1.758
	c0.866-1.162,1.778-3.119,2.735-5.898v0.709c0,2.07,0.273,3.688,0.866,4.82c0.569,1.164,1.367,1.73,2.416,1.73
	c0.615,0,1.254-0.283,1.938-0.879c0.661-0.566,1.731-1.9,3.19-3.941l0.684-0.992c3.646-5.218,6.337-8.451,8.092-9.698
	C166.042,20.787,165.996,20.787,165.929,20.758 M50.622,25.55c-0.798,1.617-1.87,3.403-3.214,5.358
	c-1.071,1.561-2.096,2.779-3.054,3.631c-0.979,0.879-1.801,1.305-2.484,1.305c-0.341,0-0.592-0.084-0.729-0.283
	c-0.137-0.172-0.205-0.482-0.205-0.879c0-0.822,0.296-1.93,0.889-3.318s1.527-3.205,2.827-5.417c1.23-2.126,2.302-3.715,3.168-4.736
	c0.866-1.021,1.573-1.531,2.166-1.531c0.524,0,0.957,0.227,1.299,0.652c0.341,0.454,0.523,0.993,0.523,1.673
	C51.807,22.743,51.396,23.934,50.622,25.55 M77.813,49.399c-1.367,2.127-2.621,3.205-3.783,3.205c-0.73,0-1.322-0.256-1.732-0.711
	c-0.411-0.48-0.616-1.16-0.616-2.012c0-1.928,1.071-3.971,3.168-6.184c2.12-2.211,4.855-3.998,8.228-5.416
	C80.936,43.557,79.181,47.272,77.813,49.399 M85.13,30.909c-1.049,1.533-2.075,2.752-3.055,3.631
	c-1.003,0.879-1.823,1.305-2.507,1.305c-0.319,0-0.57-0.113-0.729-0.34c-0.182-0.227-0.25-0.539-0.25-0.994
	c0-0.68,0.319-1.758,1.003-3.26c0.661-1.475,1.595-3.262,2.78-5.303c1.231-2.126,2.303-3.715,3.168-4.736
	c0.866-1.021,1.573-1.531,2.165-1.531c0.502,0,0.935,0.227,1.277,0.652c0.318,0.454,0.501,0.993,0.501,1.673
	c0,0.766-0.41,1.957-1.186,3.573C87.499,27.195,86.452,28.981,85.13,30.909 M110.793,25.55c-0.798,1.617-1.868,3.403-3.213,5.358
	c-1.071,1.561-2.098,2.779-3.055,3.631c-0.98,0.879-1.801,1.305-2.484,1.305c-0.342,0-0.593-0.084-0.729-0.283
	c-0.137-0.172-0.205-0.482-0.205-0.879c0-0.822,0.297-1.93,0.889-3.318c0.593-1.389,1.527-3.205,2.826-5.417
	c1.231-2.126,2.303-3.715,3.168-4.736c0.866-1.021,1.573-1.531,2.166-1.531c0.523,0,0.957,0.227,1.299,0.652
	c0.343,0.454,0.524,0.993,0.524,1.673C111.979,22.743,111.567,23.934,110.793,25.55"/>
</svg>
